<?xml version="1.0" encoding="UTF-8" standalone="no"?>
<!-- Created with Inkscape (http://www.inkscape.org/) -->

<svg
   xmlns:dc="http://purl.org/dc/elements/1.1/"
   xmlns:cc="http://creativecommons.org/ns#"
   xmlns:rdf="http://www.w3.org/1999/02/22-rdf-syntax-ns#"
   xmlns:svg="http://www.w3.org/2000/svg"
   xmlns="http://www.w3.org/2000/svg"
   xmlns:sodipodi="http://sodipodi.sourceforge.net/DTD/sodipodi-0.dtd"
   xmlns:inkscape="http://www.inkscape.org/namespaces/inkscape"
   width="744.09448819"
   height="1052.3622047"
   id="svg2"
   version="1.1"
   inkscape:version="0.48.1 "
   sodipodi:docname="cuasilineal.svg">
  <defs
     id="defs4">
    <clipPath
       id="clipPath3355"
       clipPathUnits="userSpaceOnUse">
      <path
         id="path3357"
         d="m 919.168,5795.83 0,-3520.83 4463.332,0 0,3520.83 -4463.332,0 z" />
    </clipPath>
    <clipPath
       id="clipPath3309"
       clipPathUnits="userSpaceOnUse">
      <path
         id="path3311"
         d="m 636.668,6052.5 0,-4086.67 4841.662,0 0,4086.67 -4841.662,0 z" />
    </clipPath>
    <clipPath
       id="clipPath3245"
       clipPathUnits="userSpaceOnUse">
      <path
         id="path3247"
         d="m 919.168,5795.83 0,-3520.83 4463.332,0 0,3520.83 -4463.332,0 z" />
    </clipPath>
    <clipPath
       id="clipPath3001"
       clipPathUnits="userSpaceOnUse">
      <path
         id="path3003"
         d="m 636.668,6052.5 0,-4086.67 4841.662,0 0,4086.67 -4841.662,0 z" />
    </clipPath>
    <clipPath
       id="clipPath3986"
       clipPathUnits="userSpaceOnUse">
      <path
         id="path3988"
         d="m 919.168,5795.83 0,-3520.83 4463.332,0 0,3520.83 -4463.332,0 z" />
    </clipPath>
    <clipPath
       id="clipPath3948"
       clipPathUnits="userSpaceOnUse">
      <path
         id="path3950"
         d="m 636.668,6052.5 0,-4041.67 4841.662,0 0,4041.67 -4841.662,0 z" />
    </clipPath>
    <clipPath
       id="clipPath3892"
       clipPathUnits="userSpaceOnUse">
      <path
         id="path3894"
         d="m 919.168,5795.83 0,-3520.83 4463.332,0 0,3520.83 -4463.332,0 z" />
    </clipPath>
    <clipPath
       id="clipPath3648"
       clipPathUnits="userSpaceOnUse">
      <path
         id="path3650"
         d="m 636.668,6052.5 0,-4041.67 4841.662,0 0,4041.67 -4841.662,0 z" />
    </clipPath>
  </defs>
  <sodipodi:namedview
     id="base"
     pagecolor="#ffffff"
     bordercolor="#666666"
     borderopacity="1.0"
     inkscape:pageopacity="0.0"
     inkscape:pageshadow="2"
     inkscape:zoom="2.0150666"
     inkscape:cx="-630.40693"
     inkscape:cy="346.06599"
     inkscape:document-units="px"
     inkscape:current-layer="g3642"
     showgrid="false"
     inkscape:window-width="1024"
     inkscape:window-height="544"
     inkscape:window-x="-4"
     inkscape:window-y="-4"
     inkscape:window-maximized="1" />
  <metadata
     id="metadata7">
    <rdf:RDF>
      <cc:Work
         rdf:about="">
        <dc:format>image/svg+xml</dc:format>
        <dc:type
           rdf:resource="http://purl.org/dc/dcmitype/StillImage" />
        <dc:title />
      </cc:Work>
    </rdf:RDF>
  </metadata>
  <g
     inkscape:label="Layer 1"
     inkscape:groupmode="layer"
     id="layer1">
    <g
       transform="matrix(1.25,0,0,-1.25,-902.18737,1016.365)"
       inkscape:label="ink_ext_XXXXXX"
       id="g2993">
      <g
         transform="scale(0.1,0.1)"
         id="g2995">
        <g
           transform="matrix(10,0,0,10,605.71424,-22.499602)"
           inkscape:label="ink_ext_XXXXXX"
           id="g3640">
          <g
             transform="scale(0.1,0.1)"
             id="g3642">
            <path
               id="path3656"
               style="fill:none;stroke:#ffffff;stroke-width:5;stroke-linecap:butt;stroke-linejoin:round;stroke-miterlimit:10;stroke-opacity:1;stroke-dasharray:none"
               d="m 770.22297,2124.9183 0,1314.2564 1666.15683,0 0,-1314.2564 -1666.15683,0"
               inkscape:connector-curvature="0" />
            <path
               id="path3670"
               style="fill:none;stroke:#000000;stroke-width:5;stroke-linecap:butt;stroke-linejoin:round;stroke-miterlimit:10;stroke-opacity:1;stroke-dasharray:none"
               d="m 910.85662,2124.9183 0,16.8016"
               inkscape:connector-curvature="0" />
            <path
               id="path3672"
               style="fill:none;stroke:#000000;stroke-width:5;stroke-linecap:butt;stroke-linejoin:round;stroke-miterlimit:10;stroke-opacity:1;stroke-dasharray:none"
               d="m 910.85662,3439.1747 0,-16.8016"
               inkscape:connector-curvature="0" />
            <g
               transform="scale(1,-1)"
               style="font-size:44.8041954px;stroke-width:5;stroke-miterlimit:10"
               id="text3676">
              <path
                 d="m 919.38502,-2082.6483 0,3.1539 -17.66572,0 c -0.0243,-0.79 0.10331,-1.5496 0.38285,-2.2788 0.44969,-1.2033 1.16981,-2.3883 2.16036,-3.5551 0.99054,-1.1667 2.42166,-2.5158 4.29337,-4.0472 2.90478,-2.3822 4.86763,-4.2691 5.88857,-5.6607 1.02092,-1.3916 1.53138,-2.7073 1.5314,-3.947 -2e-5,-1.3004 -0.46491,-2.3973 -1.39466,-3.2907 -0.92979,-0.8933 -2.14214,-1.3399 -3.63706,-1.3399 -1.58002,0 -2.84403,0.474 -3.79203,1.422 -0.94801,0.948 -1.42809,2.2606 -1.44024,3.9378 l -3.37271,-0.3463 c 0.23093,-2.5159 1.09993,-4.4332 2.60702,-5.7519 1.50708,-1.3187 3.5307,-1.978 6.07088,-1.978 2.56446,0 4.59416,0.711 6.08911,2.133 1.49491,1.422 2.24238,3.1843 2.2424,5.2869 -2e-5,1.0696 -0.21879,2.1209 -0.65631,3.154 -0.43756,1.0331 -1.16376,2.1208 -2.17859,3.2633 -1.01487,1.1425 -2.70122,2.7103 -5.05907,4.7036 -1.96894,1.6529 -3.23295,2.7741 -3.79202,3.3636 -0.55909,0.5894 -1.02094,1.1819 -1.38555,1.7775 z"
                 style="font-size:37.33683014px;font-variant:normal;font-weight:normal;writing-mode:lr-tb;fill:#000000;fill-opacity:1;fill-rule:nonzero;stroke:none;font-family:Helvetica;-inkscape-font-specification:Helvetica"
                 id="path3199" />
            </g>
            <path
               id="path3680"
               style="fill:none;stroke:#000000;stroke-width:5;stroke-linecap:butt;stroke-linejoin:round;stroke-miterlimit:10;stroke-opacity:1;stroke-dasharray:none"
               d="m 1080.4293,2124.9183 0,16.8016"
               inkscape:connector-curvature="0" />
            <path
               id="path3682"
               style="fill:none;stroke:#000000;stroke-width:5;stroke-linecap:butt;stroke-linejoin:round;stroke-miterlimit:10;stroke-opacity:1;stroke-dasharray:none"
               d="m 1080.4293,3439.1747 0,-16.8016"
               inkscape:connector-curvature="0" />
            <g
               transform="scale(1,-1)"
               style="font-size:44.8041954px;stroke-width:5;stroke-miterlimit:10"
               id="text3686">
              <path
                 d="m 1082.2305,-2079.4944 0,-6.399 -11.5949,0 0,-3.0081 12.1965,-17.3193 2.6799,0 0,17.3193 3.6097,0 0,3.0081 -3.6097,0 0,6.399 z m 0,-9.4071 0,-12.0506 -8.368,12.0506 z"
                 style="font-size:37.33683014px;font-variant:normal;font-weight:normal;writing-mode:lr-tb;fill:#000000;fill-opacity:1;fill-rule:nonzero;stroke:none;font-family:Helvetica;-inkscape-font-specification:Helvetica"
                 id="path3196" />
            </g>
            <path
               id="path3690"
               style="fill:none;stroke:#000000;stroke-width:5;stroke-linecap:butt;stroke-linejoin:round;stroke-miterlimit:10;stroke-opacity:1;stroke-dasharray:none"
               d="m 1250.002,2124.9183 0,16.8016"
               inkscape:connector-curvature="0" />
            <path
               id="path3692"
               style="fill:none;stroke:#000000;stroke-width:5;stroke-linecap:butt;stroke-linejoin:round;stroke-miterlimit:10;stroke-opacity:1;stroke-dasharray:none"
               d="m 1250.002,3439.1747 0,-16.8016"
               inkscape:connector-curvature="0" />
            <g
               transform="scale(1,-1)"
               style="font-size:44.8041954px;stroke-width:5;stroke-miterlimit:10"
               id="text3696">
              <path
                 d="m 1258.3116,-2099.676 -3.2633,0.2553 c -0.2917,-1.2883 -0.7049,-2.2242 -1.2397,-2.8076 -0.8872,-0.9358 -1.9811,-1.4037 -3.2815,-1.4038 -1.0453,10e-5 -1.9629,0.2918 -2.7529,0.8751 -1.0331,0.7536 -1.8474,1.8535 -2.4429,3.2998 -0.5956,1.4463 -0.9055,3.5064 -0.9298,6.1803 0.79,-1.2032 1.7562,-2.0966 2.8987,-2.68 1.1424,-0.5833 2.3396,-0.875 3.5915,-0.875 2.1877,0 4.0502,0.8052 5.5877,2.4155 1.5375,1.6105 2.3062,3.6918 2.3062,6.2441 0,1.6773 -0.3616,3.236 -1.0847,4.6762 -0.7232,1.4403 -1.7168,2.5432 -2.9807,3.3089 -1.2641,0.7657 -2.6982,1.1486 -4.3025,1.1486 -2.7347,0 -4.9649,-1.0057 -6.6908,-3.0172 -1.7258,-2.0115 -2.5887,-5.3265 -2.5887,-9.945 0,-5.1654 0.954,-8.9209 2.8622,-11.2666 1.6651,-2.0419 3.9075,-3.0628 6.7272,-3.0628 2.1026,0 3.8254,0.5895 5.1684,1.7684 1.343,1.1789 2.1482,2.8075 2.4156,4.8858 z m -13.3997,11.522 c 0,1.1303 0.2401,2.212 0.7202,3.245 0.48,1.0331 1.1515,1.8201 2.0145,2.3609 0.8629,0.5409 1.7684,0.8113 2.7164,0.8113 1.3855,0 2.5766,-0.5591 3.5732,-1.6772 0.9966,-1.1182 1.4949,-2.6374 1.495,-4.5577 -10e-5,-1.8474 -0.4923,-3.3029 -1.4767,-4.3663 -0.9845,-1.0635 -2.2242,-1.5952 -3.7191,-1.5952 -1.4828,0 -2.7408,0.5317 -3.7738,1.5952 -1.0331,1.0634 -1.5497,2.4581 -1.5497,4.184 z"
                 style="font-size:37.33683014px;font-variant:normal;font-weight:normal;writing-mode:lr-tb;fill:#000000;fill-opacity:1;fill-rule:nonzero;stroke:none;font-family:Helvetica;-inkscape-font-specification:Helvetica"
                 id="path3193" />
            </g>
            <path
               id="path3700"
               style="fill:none;stroke:#000000;stroke-width:5;stroke-linecap:butt;stroke-linejoin:round;stroke-miterlimit:10;stroke-opacity:1;stroke-dasharray:none"
               d="m 1419.5709,2124.9183 0,16.8016"
               inkscape:connector-curvature="0" />
            <path
               id="path3702"
               style="fill:none;stroke:#000000;stroke-width:5;stroke-linecap:butt;stroke-linejoin:round;stroke-miterlimit:10;stroke-opacity:1;stroke-dasharray:none"
               d="m 1419.5709,3439.1747 0,-16.8016"
               inkscape:connector-curvature="0" />
            <g
               transform="scale(1,-1)"
               style="font-size:44.8041954px;stroke-width:5;stroke-miterlimit:10"
               id="text3706">
              <path
                 d="m 1415.9029,-2093.9879 c -1.3612,-0.4983 -2.37,-1.2093 -3.0263,-2.133 -0.6563,-0.9237 -0.9845,-2.0297 -0.9845,-3.3181 0,-1.9446 0.6989,-3.5793 2.0966,-4.9041 1.3977,-1.3247 3.2572,-1.9871 5.5786,-1.9871 2.3336,0 4.2113,0.6776 5.6334,2.0327 1.422,1.3552 2.133,3.0051 2.133,4.9497 0,1.2397 -0.3252,2.3184 -0.9754,3.236 -0.6502,0.9176 -1.6377,1.6256 -2.9625,2.1239 1.6408,0.5348 2.8896,1.3977 3.7465,2.5888 0.8568,1.191 1.2852,2.6131 1.2852,4.266 0,2.2849 -0.8082,4.2052 -2.4247,5.7609 -1.6165,1.5557 -3.7434,2.3336 -6.3808,2.3336 -2.6374,0 -4.7643,-0.7809 -6.3808,-2.3427 -1.6165,-1.5618 -2.4247,-3.5094 -2.4247,-5.843 0,-1.738 0.4406,-3.1934 1.3217,-4.3663 0.8812,-1.1728 2.1361,-1.9719 3.7647,-2.3973 z m -0.6563,-5.5604 c 0,1.264 0.4072,2.2971 1.2215,3.0992 0.8143,0.8022 1.8717,1.2033 3.1722,1.2032 1.2639,10e-5 2.3001,-0.398 3.1083,-1.1941 0.8082,-0.796 1.2124,-1.7714 1.2124,-2.926 0,-1.2033 -0.4163,-2.2151 -1.2488,-3.0355 -0.8326,-0.8203 -1.8687,-1.2305 -3.1084,-1.2306 -1.2519,10e-5 -2.291,0.4011 -3.1175,1.2033 -0.8265,0.8022 -1.2397,1.7623 -1.2397,2.8805 z m -1.0574,12.3423 c 0,0.9358 0.2218,1.8413 0.6654,2.7164 0.4437,0.875 1.103,1.5526 1.9781,2.0327 0.8751,0.4801 1.817,0.7201 2.8258,0.7201 1.5678,0 2.8622,-0.5044 3.8832,-1.5131 1.0209,-1.0088 1.5313,-2.2911 1.5314,-3.8468 -10e-5,-1.58 -0.5257,-2.8865 -1.577,-3.9196 -1.0513,-1.0331 -2.367,-1.5496 -3.947,-1.5496 -1.5436,0 -2.8228,0.5105 -3.8376,1.5314 -1.0149,1.0209 -1.5223,2.2971 -1.5223,3.8285 z"
                 style="font-size:37.33683014px;font-variant:normal;font-weight:normal;writing-mode:lr-tb;fill:#000000;fill-opacity:1;fill-rule:nonzero;stroke:none;font-family:Helvetica;-inkscape-font-specification:Helvetica"
                 id="path3190" />
            </g>
            <path
               id="path3710"
               style="fill:none;stroke:#000000;stroke-width:5;stroke-linecap:butt;stroke-linejoin:round;stroke-miterlimit:10;stroke-opacity:1;stroke-dasharray:none"
               d="m 1588.8337,2124.9183 0,16.8016"
               inkscape:connector-curvature="0" />
            <path
               id="path3712"
               style="fill:none;stroke:#000000;stroke-width:5;stroke-linecap:butt;stroke-linejoin:round;stroke-miterlimit:10;stroke-opacity:1;stroke-dasharray:none"
               d="m 1588.8337,3439.1747 0,-16.8016"
               inkscape:connector-curvature="0" />
            <g
               transform="scale(1,-1)"
               style="font-size:44.8041954px;stroke-width:5;stroke-miterlimit:10"
               id="text3716">
              <path
                 d="m 1582.2086,-2079.4944 -3.2815,0 0,-20.9108 c -0.7901,0.7536 -1.8262,1.5071 -3.1084,2.2606 -1.2822,0.7536 -2.4338,1.3187 -3.4548,1.6955 l 0,-3.1722 c 1.8353,-0.8629 3.4396,-1.9081 4.813,-3.1357 1.3734,-1.2275 2.3457,-2.4186 2.9169,-3.5732 l 2.1148,0 z"
                 style="font-size:37.33683014px;font-variant:normal;font-weight:normal;writing-mode:lr-tb;fill:#000000;fill-opacity:1;fill-rule:nonzero;stroke:none;font-family:Helvetica;-inkscape-font-specification:Helvetica"
                 id="path3185" />
              <path
                 d="m 1590.6074,-2092.6753 c 0,-3.16 0.3251,-5.7032 0.9753,-7.6296 0.6502,-1.9264 1.6165,-3.4122 2.8987,-4.4575 1.2823,-1.0452 2.8957,-1.5678 4.8403,-1.5678 1.4342,0 2.6921,0.2887 3.7738,0.8659 1.0817,0.5774 1.975,1.4099 2.68,2.4977 0.7049,1.0878 1.2579,2.4125 1.659,3.9743 0.401,1.5618 0.6016,3.6675 0.6016,6.317 0,3.1357 -0.3221,5.6668 -0.9663,7.5932 -0.6441,1.9264 -1.6073,3.4152 -2.8896,4.4665 -1.2822,1.0513 -2.9017,1.577 -4.8585,1.577 -2.5766,0 -4.6002,-0.9237 -6.0709,-2.7711 -1.7623,-2.2242 -2.6434,-5.846 -2.6434,-10.8656 z m 3.3727,0 c 0,4.3876 0.5135,7.3075 1.5405,8.7599 1.027,1.4524 2.294,2.1786 3.8011,2.1786 1.5071,0 2.7741,-0.7292 3.8012,-2.1877 1.0269,-1.4585 1.5405,-4.3754 1.5405,-8.7508 0,-4.3997 -0.5136,-7.3227 -1.5405,-8.7691 -1.0271,-1.4462 -2.3063,-2.1694 -3.8376,-2.1694 -1.5071,0 -2.7104,0.6381 -3.6098,1.9142 -1.1303,1.6287 -1.6954,4.6367 -1.6954,9.0243 z"
                 style="font-size:37.33683014px;font-variant:normal;font-weight:normal;writing-mode:lr-tb;fill:#000000;fill-opacity:1;fill-rule:nonzero;stroke:none;font-family:Helvetica;-inkscape-font-specification:Helvetica"
                 id="path3187" />
            </g>
            <path
               id="path3720"
               style="fill:none;stroke:#000000;stroke-width:5;stroke-linecap:butt;stroke-linejoin:round;stroke-miterlimit:10;stroke-opacity:1;stroke-dasharray:none"
               d="m 1758.4027,2124.9183 0,16.8016"
               inkscape:connector-curvature="0" />
            <path
               id="path3722"
               style="fill:none;stroke:#000000;stroke-width:5;stroke-linecap:butt;stroke-linejoin:round;stroke-miterlimit:10;stroke-opacity:1;stroke-dasharray:none"
               d="m 1758.4027,3439.1747 0,-16.8016"
               inkscape:connector-curvature="0" />
            <g
               transform="scale(1,-1)"
               style="font-size:44.8041954px;stroke-width:5;stroke-miterlimit:10"
               id="text3726">
              <path
                 d="m 1751.7776,-2079.4944 -3.2816,0 0,-20.9108 c -0.79,0.7536 -1.8261,1.5071 -3.1083,2.2606 -1.2823,0.7536 -2.4339,1.3187 -3.4548,1.6955 l 0,-3.1722 c 1.8353,-0.8629 3.4396,-1.9081 4.813,-3.1357 1.3733,-1.2275 2.3457,-2.4186 2.9169,-3.5732 l 2.1148,0 z"
                 style="font-size:37.33683014px;font-variant:normal;font-weight:normal;writing-mode:lr-tb;fill:#000000;fill-opacity:1;fill-rule:nonzero;stroke:none;font-family:Helvetica;-inkscape-font-specification:Helvetica"
                 id="path3180" />
              <path
                 d="m 1777.4227,-2082.6483 0,3.1539 -17.6657,0 c -0.024,-0.79 0.1033,-1.5496 0.3829,-2.2788 0.4497,-1.2033 1.1698,-2.3883 2.1603,-3.5551 0.9906,-1.1667 2.4217,-2.5158 4.2934,-4.0472 2.9048,-2.3822 4.8676,-4.2691 5.8886,-5.6607 1.0209,-1.3916 1.5314,-2.7073 1.5314,-3.947 0,-1.3004 -0.4649,-2.3973 -1.3947,-3.2907 -0.9298,-0.8933 -2.1421,-1.3399 -3.6371,-1.3399 -1.58,0 -2.844,0.474 -3.792,1.422 -0.948,0.948 -1.4281,2.2606 -1.4402,3.9378 l -3.3727,-0.3463 c 0.2309,-2.5159 1.0999,-4.4332 2.607,-5.7519 1.5071,-1.3187 3.5307,-1.978 6.0709,-1.978 2.5644,0 4.5941,0.711 6.0891,2.133 1.4949,1.422 2.2424,3.1843 2.2424,5.2869 0,1.0696 -0.2188,2.1209 -0.6563,3.154 -0.4376,1.0331 -1.1638,2.1208 -2.1786,3.2633 -1.0149,1.1425 -2.7012,2.7103 -5.0591,4.7036 -1.9689,1.6529 -3.2329,2.7741 -3.792,3.3636 -0.5591,0.5894 -1.0209,1.1819 -1.3856,1.7775 z"
                 style="font-size:37.33683014px;font-variant:normal;font-weight:normal;writing-mode:lr-tb;fill:#000000;fill-opacity:1;fill-rule:nonzero;stroke:none;font-family:Helvetica;-inkscape-font-specification:Helvetica"
                 id="path3182" />
            </g>
            <path
               id="path3730"
               style="fill:none;stroke:#000000;stroke-width:5;stroke-linecap:butt;stroke-linejoin:round;stroke-miterlimit:10;stroke-opacity:1;stroke-dasharray:none"
               d="m 1927.9753,2124.9183 0,16.8016"
               inkscape:connector-curvature="0" />
            <path
               id="path3732"
               style="fill:none;stroke:#000000;stroke-width:5;stroke-linecap:butt;stroke-linejoin:round;stroke-miterlimit:10;stroke-opacity:1;stroke-dasharray:none"
               d="m 1927.9753,3439.1747 0,-16.8016"
               inkscape:connector-curvature="0" />
            <g
               transform="scale(1,-1)"
               style="font-size:44.8041954px;stroke-width:5;stroke-miterlimit:10"
               id="text3736">
              <path
                 d="m 1921.3502,-2079.4944 -3.2815,0 0,-20.9108 c -0.7901,0.7536 -1.8262,1.5071 -3.1084,2.2606 -1.2822,0.7536 -2.4338,1.3187 -3.4548,1.6955 l 0,-3.1722 c 1.8353,-0.8629 3.4396,-1.9081 4.813,-3.1357 1.3734,-1.2275 2.3457,-2.4186 2.9169,-3.5732 l 2.1148,0 z"
                 style="font-size:37.33683014px;font-variant:normal;font-weight:normal;writing-mode:lr-tb;fill:#000000;fill-opacity:1;fill-rule:nonzero;stroke:none;font-family:Helvetica;-inkscape-font-specification:Helvetica"
                 id="path3175" />
              <path
                 d="m 1940.2682,-2079.4944 0,-6.399 -11.5949,0 0,-3.0081 12.1965,-17.3193 2.6799,0 0,17.3193 3.6097,0 0,3.0081 -3.6097,0 0,6.399 z m 0,-9.4071 0,-12.0506 -8.368,12.0506 z"
                 style="font-size:37.33683014px;font-variant:normal;font-weight:normal;writing-mode:lr-tb;fill:#000000;fill-opacity:1;fill-rule:nonzero;stroke:none;font-family:Helvetica;-inkscape-font-specification:Helvetica"
                 id="path3177" />
            </g>
            <path
               id="path3740"
               style="fill:none;stroke:#000000;stroke-width:5;stroke-linecap:butt;stroke-linejoin:round;stroke-miterlimit:10;stroke-opacity:1;stroke-dasharray:none"
               d="m 2097.548,2124.9183 0,16.8016"
               inkscape:connector-curvature="0" />
            <path
               id="path3742"
               style="fill:none;stroke:#000000;stroke-width:5;stroke-linecap:butt;stroke-linejoin:round;stroke-miterlimit:10;stroke-opacity:1;stroke-dasharray:none"
               d="m 2097.548,3439.1747 0,-16.8016"
               inkscape:connector-curvature="0" />
            <g
               transform="scale(1,-1)"
               style="font-size:44.8041954px;stroke-width:5;stroke-miterlimit:10"
               id="text3746">
              <path
                 d="m 2090.9229,-2079.4944 -3.2816,0 0,-20.9108 c -0.79,0.7536 -1.8261,1.5071 -3.1084,2.2606 -1.2822,0.7536 -2.4338,1.3187 -3.4547,1.6955 l 0,-3.1722 c 1.8352,-0.8629 3.4395,-1.9081 4.8129,-3.1357 1.3734,-1.2275 2.3457,-2.4186 2.917,-3.5732 l 2.1148,0 z"
                 style="font-size:37.33683014px;font-variant:normal;font-weight:normal;writing-mode:lr-tb;fill:#000000;fill-opacity:1;fill-rule:nonzero;stroke:none;font-family:Helvetica;-inkscape-font-specification:Helvetica"
                 id="path3170" />
              <path
                 d="m 2116.3492,-2099.676 -3.2633,0.2553 c -0.2917,-1.2883 -0.7049,-2.2242 -1.2397,-2.8076 -0.8872,-0.9358 -1.9811,-1.4037 -3.2815,-1.4038 -1.0453,10e-5 -1.9629,0.2918 -2.7529,0.8751 -1.0331,0.7536 -1.8474,1.8535 -2.4429,3.2998 -0.5956,1.4463 -0.9055,3.5064 -0.9298,6.1803 0.79,-1.2032 1.7562,-2.0966 2.8987,-2.68 1.1424,-0.5833 2.3396,-0.875 3.5915,-0.875 2.1877,0 4.0502,0.8052 5.5877,2.4155 1.5375,1.6105 2.3062,3.6918 2.3062,6.2441 0,1.6773 -0.3616,3.236 -1.0847,4.6762 -0.7232,1.4403 -1.7168,2.5432 -2.9807,3.3089 -1.2641,0.7657 -2.6982,1.1486 -4.3025,1.1486 -2.7347,0 -4.9649,-1.0057 -6.6908,-3.0172 -1.7258,-2.0115 -2.5888,-5.3265 -2.5888,-9.945 0,-5.1654 0.9541,-8.9209 2.8623,-11.2666 1.6651,-2.0419 3.9075,-3.0628 6.7272,-3.0628 2.1026,0 3.8254,0.5895 5.1684,1.7684 1.343,1.1789 2.1482,2.8075 2.4156,4.8858 z m -13.3997,11.522 c 0,1.1303 0.2401,2.212 0.7202,3.245 0.48,1.0331 1.1515,1.8201 2.0145,2.3609 0.8629,0.5409 1.7684,0.8113 2.7164,0.8113 1.3855,0 2.5766,-0.5591 3.5732,-1.6772 0.9966,-1.1182 1.4949,-2.6374 1.495,-4.5577 -1e-4,-1.8474 -0.4923,-3.3029 -1.4767,-4.3663 -0.9845,-1.0635 -2.2242,-1.5952 -3.7191,-1.5952 -1.4828,0 -2.7408,0.5317 -3.7738,1.5952 -1.0331,1.0634 -1.5497,2.4581 -1.5497,4.184 z"
                 style="font-size:37.33683014px;font-variant:normal;font-weight:normal;writing-mode:lr-tb;fill:#000000;fill-opacity:1;fill-rule:nonzero;stroke:none;font-family:Helvetica;-inkscape-font-specification:Helvetica"
                 id="path3172" />
            </g>
            <path
               id="path3750"
               style="fill:none;stroke:#000000;stroke-width:5;stroke-linecap:butt;stroke-linejoin:round;stroke-miterlimit:10;stroke-opacity:1;stroke-dasharray:none"
               d="m 2266.8071,2124.9183 0,16.8016"
               inkscape:connector-curvature="0" />
            <path
               id="path3752"
               style="fill:none;stroke:#000000;stroke-width:5;stroke-linecap:butt;stroke-linejoin:round;stroke-miterlimit:10;stroke-opacity:1;stroke-dasharray:none"
               d="m 2266.8071,3439.1747 0,-16.8016"
               inkscape:connector-curvature="0" />
            <g
               transform="scale(1,-1)"
               style="font-size:44.8041954px;stroke-width:5;stroke-miterlimit:10"
               id="text3756">
              <path
                 d="m 2260.1819,-2079.4944 -3.2816,0 0,-20.9108 c -0.79,0.7536 -1.8261,1.5071 -3.1083,2.2606 -1.2823,0.7536 -2.4339,1.3187 -3.4548,1.6955 l 0,-3.1722 c 1.8352,-0.8629 3.4396,-1.9081 4.813,-3.1357 1.3733,-1.2275 2.3457,-2.4186 2.9169,-3.5732 l 2.1148,0 z"
                 style="font-size:37.33683014px;font-variant:normal;font-weight:normal;writing-mode:lr-tb;fill:#000000;fill-opacity:1;fill-rule:nonzero;stroke:none;font-family:Helvetica;-inkscape-font-specification:Helvetica"
                 id="path3165" />
              <path
                 d="m 2273.6308,-2093.9879 c -1.3612,-0.4983 -2.37,-1.2093 -3.0263,-2.133 -0.6563,-0.9237 -0.9845,-2.0297 -0.9845,-3.3181 0,-1.9446 0.6989,-3.5793 2.0966,-4.9041 1.3977,-1.3247 3.2572,-1.9871 5.5786,-1.9871 2.3336,0 4.2113,0.6776 5.6334,2.0327 1.422,1.3552 2.133,3.0051 2.133,4.9497 0,1.2397 -0.3252,2.3184 -0.9754,3.236 -0.6502,0.9176 -1.6377,1.6256 -2.9625,2.1239 1.6408,0.5348 2.8896,1.3977 3.7465,2.5888 0.8568,1.191 1.2852,2.6131 1.2852,4.266 0,2.2849 -0.8082,4.2052 -2.4247,5.7609 -1.6165,1.5557 -3.7434,2.3336 -6.3808,2.3336 -2.6374,0 -4.7643,-0.7809 -6.3808,-2.3427 -1.6165,-1.5618 -2.4247,-3.5094 -2.4247,-5.843 0,-1.738 0.4406,-3.1934 1.3218,-4.3663 0.8811,-1.1728 2.136,-1.9719 3.7646,-2.3973 z m -0.6563,-5.5604 c 0,1.264 0.4072,2.2971 1.2215,3.0992 0.8143,0.8022 1.8717,1.2033 3.1722,1.2032 1.264,10e-5 2.3001,-0.398 3.1083,-1.1941 0.8082,-0.796 1.2124,-1.7714 1.2124,-2.926 0,-1.2033 -0.4163,-2.2151 -1.2488,-3.0355 -0.8326,-0.8203 -1.8687,-1.2305 -3.1084,-1.2306 -1.2519,10e-5 -2.291,0.4011 -3.1175,1.2033 -0.8265,0.8022 -1.2397,1.7623 -1.2397,2.8805 z m -1.0574,12.3423 c 0,0.9358 0.2218,1.8413 0.6655,2.7164 0.4436,0.875 1.1029,1.5526 1.978,2.0327 0.8751,0.4801 1.817,0.7201 2.8258,0.7201 1.5678,0 2.8622,-0.5044 3.8832,-1.5131 1.0209,-1.0088 1.5313,-2.2911 1.5314,-3.8468 -10e-5,-1.58 -0.5257,-2.8865 -1.577,-3.9196 -1.0513,-1.0331 -2.367,-1.5496 -3.947,-1.5496 -1.5436,0 -2.8228,0.5105 -3.8376,1.5314 -1.0149,1.0209 -1.5223,2.2971 -1.5223,3.8285 z"
                 style="font-size:37.33683014px;font-variant:normal;font-weight:normal;writing-mode:lr-tb;fill:#000000;fill-opacity:1;fill-rule:nonzero;stroke:none;font-family:Helvetica;-inkscape-font-specification:Helvetica"
                 id="path3167" />
            </g>
            <path
               id="path3760"
               style="fill:none;stroke:#000000;stroke-width:5;stroke-linecap:butt;stroke-linejoin:round;stroke-miterlimit:10;stroke-opacity:1;stroke-dasharray:none"
               d="m 2436.3798,2124.9183 0,16.8016"
               inkscape:connector-curvature="0" />
            <path
               id="path3762"
               style="fill:none;stroke:#000000;stroke-width:5;stroke-linecap:butt;stroke-linejoin:round;stroke-miterlimit:10;stroke-opacity:1;stroke-dasharray:none"
               d="m 2436.3798,3439.1747 0,-16.8016"
               inkscape:connector-curvature="0" />
            <g
               transform="scale(1,-1)"
               style="font-size:44.8041954px;stroke-width:5;stroke-miterlimit:10"
               id="text3766">
              <path
                 d="m 2434.6405,-2082.6483 0,3.1539 -17.6657,0 c -0.024,-0.79 0.1033,-1.5496 0.3828,-2.2788 0.4497,-1.2033 1.1699,-2.3883 2.1604,-3.5551 0.9905,-1.1667 2.4217,-2.5158 4.2934,-4.0472 2.9047,-2.3822 4.8676,-4.2691 5.8885,-5.6607 1.021,-1.3916 1.5314,-2.7073 1.5314,-3.947 0,-1.3004 -0.4649,-2.3973 -1.3946,-3.2907 -0.9298,-0.8933 -2.1422,-1.3399 -3.6371,-1.3399 -1.58,0 -2.844,0.474 -3.792,1.422 -0.948,0.948 -1.4281,2.2606 -1.4402,3.9378 l -3.3728,-0.3463 c 0.231,-2.5159 1.1,-4.4332 2.6071,-5.7519 1.507,-1.3187 3.5307,-1.978 6.0708,-1.978 2.5645,0 4.5942,0.711 6.0892,2.133 1.4949,1.422 2.2423,3.1843 2.2424,5.2869 -1e-4,1.0696 -0.2188,2.1209 -0.6564,3.154 -0.4375,1.0331 -1.1637,2.1208 -2.1785,3.2633 -1.0149,1.1425 -2.7013,2.7103 -5.0591,4.7036 -1.969,1.6529 -3.233,2.7741 -3.792,3.3636 -0.5591,0.5894 -1.021,1.1819 -1.3856,1.7775 z"
                 style="font-size:37.33683014px;font-variant:normal;font-weight:normal;writing-mode:lr-tb;fill:#000000;fill-opacity:1;fill-rule:nonzero;stroke:none;font-family:Helvetica;-inkscape-font-specification:Helvetica"
                 id="path3160" />
              <path
                 d="m 2438.1534,-2092.6753 c 0,-3.16 0.3251,-5.7032 0.9753,-7.6296 0.6503,-1.9264 1.6165,-3.4122 2.8987,-4.4575 1.2823,-1.0452 2.8957,-1.5678 4.8403,-1.5678 1.4342,0 2.6921,0.2887 3.7738,0.8659 1.0817,0.5774 1.975,1.4099 2.68,2.4977 0.7049,1.0878 1.2579,2.4125 1.659,3.9743 0.401,1.5618 0.6016,3.6675 0.6016,6.317 0,3.1357 -0.3221,5.6668 -0.9662,7.5932 -0.6442,1.9264 -1.6074,3.4152 -2.8896,4.4665 -1.2823,1.0513 -2.9018,1.577 -4.8586,1.577 -2.5766,0 -4.6002,-0.9237 -6.0708,-2.7711 -1.7624,-2.2242 -2.6435,-5.846 -2.6435,-10.8656 z m 3.3727,0 c 0,4.3876 0.5135,7.3075 1.5405,8.7599 1.027,1.4524 2.294,2.1786 3.8011,2.1786 1.5071,0 2.7742,-0.7292 3.8012,-2.1877 1.027,-1.4585 1.5405,-4.3754 1.5405,-8.7508 0,-4.3997 -0.5135,-7.3227 -1.5405,-8.7691 -1.027,-1.4462 -2.3062,-2.1694 -3.8376,-2.1694 -1.5071,0 -2.7104,0.6381 -3.6097,1.9142 -1.1304,1.6287 -1.6955,4.6367 -1.6955,9.0243 z"
                 style="font-size:37.33683014px;font-variant:normal;font-weight:normal;writing-mode:lr-tb;fill:#000000;fill-opacity:1;fill-rule:nonzero;stroke:none;font-family:Helvetica;-inkscape-font-specification:Helvetica"
                 id="path3162" />
            </g>
            <path
               id="path3770"
               style="fill:none;stroke:#000000;stroke-width:5;stroke-linecap:butt;stroke-linejoin:round;stroke-miterlimit:10;stroke-opacity:1;stroke-dasharray:none"
               d="m 770.22297,2124.9183 16.80158,0"
               inkscape:connector-curvature="0" />
            <path
               id="path3772"
               style="fill:none;stroke:#000000;stroke-width:5;stroke-linecap:butt;stroke-linejoin:round;stroke-miterlimit:10;stroke-opacity:1;stroke-dasharray:none"
               d="m 2436.3798,2124.9183 -16.8016,0"
               inkscape:connector-curvature="0" />
            <g
               transform="scale(1,-1)"
               style="font-size:44.8041954px;stroke-width:5;stroke-miterlimit:10"
               id="text3776">
              <path
                 d="m 740.34693,-2124.4114 c -1e-5,-3.16 0.32511,-5.7032 0.97535,-7.6296 0.65023,-1.9264 1.61647,-3.4122 2.89871,-4.4575 1.28223,-1.0452 2.89566,-1.5678 4.84029,-1.5678 1.43415,0 2.69208,0.2887 3.7738,0.866 1.08168,0.5773 1.97499,1.4098 2.67993,2.4976 0.70491,1.0878 1.25792,2.4126 1.65901,3.9743 0.40106,1.5618 0.6016,3.6675 0.60162,6.317 -2e-5,3.1357 -0.3221,5.6668 -0.96623,7.5932 -0.64418,1.9264 -1.60738,3.4152 -2.8896,4.4665 -1.28225,1.0513 -2.90176,1.577 -4.85853,1.577 -2.57663,0 -4.60026,-0.9237 -6.07088,-2.7711 -1.76232,-2.2242 -2.64348,-5.846 -2.64347,-10.8656 z m 3.37271,0 c -10e-6,4.3876 0.5135,7.3076 1.54051,8.7599 1.027,1.4524 2.29404,2.1786 3.80113,2.1786 1.50708,0 2.77412,-0.7292 3.80114,-2.1877 1.02699,-1.4584 1.54049,-4.3754 1.54051,-8.7508 -2e-5,-4.3997 -0.51352,-7.3227 -1.54051,-8.769 -1.02702,-1.4463 -2.30622,-2.1695 -3.8376,-2.1695 -1.50709,0 -2.71033,0.6381 -3.60971,1.9142 -1.13032,1.6287 -1.69548,4.6368 -1.69547,9.0243 z"
                 style="font-size:37.33683014px;font-variant:normal;font-weight:normal;writing-mode:lr-tb;fill:#000000;fill-opacity:1;fill-rule:nonzero;stroke:none;font-family:Helvetica;-inkscape-font-specification:Helvetica"
                 id="path3157" />
            </g>
            <path
               id="path3780"
               style="fill:none;stroke:#000000;stroke-width:5;stroke-linecap:butt;stroke-linejoin:round;stroke-miterlimit:10;stroke-opacity:1;stroke-dasharray:none"
               d="m 770.22297,2256.2207 16.80158,0"
               inkscape:connector-curvature="0" />
            <path
               id="path3782"
               style="fill:none;stroke:#000000;stroke-width:5;stroke-linecap:butt;stroke-linejoin:round;stroke-miterlimit:10;stroke-opacity:1;stroke-dasharray:none"
               d="m 2436.3798,2256.2207 -16.8016,0"
               inkscape:connector-curvature="0" />
            <g
               transform="scale(1,-1)"
               style="font-size:44.8041954px;stroke-width:5;stroke-miterlimit:10"
               id="text3786">
              <path
                 d="m 757.59333,-2245.6832 0,3.1539 -17.66571,0 c -0.0243,-0.79 0.1033,-1.5496 0.38284,-2.2789 0.4497,-1.2032 1.16982,-2.3882 2.16036,-3.555 0.99054,-1.1667 2.42167,-2.5158 4.29337,-4.0472 2.90478,-2.3822 4.86763,-4.2691 5.88858,-5.6607 1.02091,-1.3916 1.53137,-2.7073 1.53139,-3.947 -2e-5,-1.3004 -0.4649,-2.3973 -1.39466,-3.2907 -0.92979,-0.8933 -2.14214,-1.3399 -3.63706,-1.3399 -1.58002,0 -2.84403,0.474 -3.79202,1.422 -0.94801,0.948 -1.42809,2.2606 -1.44024,3.9378 l -3.37271,-0.3464 c 0.23092,-2.5158 1.09992,-4.4331 2.60701,-5.7518 1.50708,-1.3187 3.53071,-1.978 6.07088,-1.978 2.56447,0 4.59417,0.711 6.08911,2.133 1.49492,1.422 2.24238,3.1843 2.2424,5.2869 -2e-5,1.0696 -0.21879,2.1209 -0.65631,3.154 -0.43756,1.0331 -1.16375,2.1208 -2.17859,3.2633 -1.01487,1.1425 -2.70122,2.7103 -5.05907,4.7036 -1.96894,1.6529 -3.23295,2.7741 -3.79202,3.3636 -0.55909,0.5894 -1.02093,1.1819 -1.38555,1.7775 z"
                 style="font-size:37.33683014px;font-variant:normal;font-weight:normal;writing-mode:lr-tb;fill:#000000;fill-opacity:1;fill-rule:nonzero;stroke:none;font-family:Helvetica;-inkscape-font-specification:Helvetica"
                 id="path3154" />
            </g>
            <path
               id="path3790"
               style="fill:none;stroke:#000000;stroke-width:5;stroke-linecap:butt;stroke-linejoin:round;stroke-miterlimit:10;stroke-opacity:1;stroke-dasharray:none"
               d="m 770.22297,2387.833 16.80158,0"
               inkscape:connector-curvature="0" />
            <path
               id="path3792"
               style="fill:none;stroke:#000000;stroke-width:5;stroke-linecap:butt;stroke-linejoin:round;stroke-miterlimit:10;stroke-opacity:1;stroke-dasharray:none"
               d="m 2436.3798,2387.833 -16.8016,0"
               inkscape:connector-curvature="0" />
            <g
               transform="scale(1,-1)"
               style="font-size:44.8041954px;stroke-width:5;stroke-miterlimit:10"
               id="text3796">
              <path
                 d="m 750.86614,-2374.1416 0,-6.399 -11.59484,0 0,-3.0081 12.19646,-17.3194 2.67994,0 0,17.3194 3.60971,0 0,3.0081 -3.60971,0 0,6.399 z m 0,-9.4071 0,-12.0506 -8.36797,12.0506 z"
                 style="font-size:37.33683014px;font-variant:normal;font-weight:normal;writing-mode:lr-tb;fill:#000000;fill-opacity:1;fill-rule:nonzero;stroke:none;font-family:Helvetica;-inkscape-font-specification:Helvetica"
                 id="path3151" />
            </g>
            <path
               id="path3800"
               style="fill:none;stroke:#000000;stroke-width:5;stroke-linecap:butt;stroke-linejoin:round;stroke-miterlimit:10;stroke-opacity:1;stroke-dasharray:none"
               d="m 770.22297,2519.1355 16.80158,0"
               inkscape:connector-curvature="0" />
            <path
               id="path3802"
               style="fill:none;stroke:#000000;stroke-width:5;stroke-linecap:butt;stroke-linejoin:round;stroke-miterlimit:10;stroke-opacity:1;stroke-dasharray:none"
               d="m 2436.3798,2519.1355 -16.8016,0"
               inkscape:connector-curvature="0" />
            <g
               transform="scale(1,-1)"
               style="font-size:44.8041954px;stroke-width:5;stroke-miterlimit:10"
               id="text3806">
              <path
                 d="m 757.37456,-2525.6257 -3.26332,0.2553 c -0.29171,-1.2883 -0.70495,-2.2242 -1.2397,-2.8076 -0.88725,-0.9358 -1.9811,-1.4037 -3.28156,-1.4038 -1.04525,10e-5 -1.96287,0.2917 -2.75286,0.8751 -1.03309,0.7536 -1.8474,1.8535 -2.44294,3.2998 -0.59555,1.4463 -0.90547,3.5064 -0.92977,6.1803 0.79,-1.2033 1.75623,-2.0966 2.8987,-2.68 1.14246,-0.5833 2.33962,-0.875 3.59149,-0.8751 2.18769,1e-4 4.05027,0.8053 5.58776,2.4156 1.53745,1.6104 2.30619,3.6918 2.30621,6.2441 -2e-5,1.6773 -0.3616,3.236 -1.08474,4.6762 -0.72318,1.4403 -1.71676,2.5432 -2.98075,3.3089 -1.26402,0.7657 -2.69818,1.1486 -4.30249,1.1486 -2.73463,0 -4.96488,-1.0058 -6.69073,-3.0172 -1.72585,-2.0115 -2.58878,-5.3265 -2.58878,-9.945 0,-5.1654 0.95408,-8.9209 2.86225,-11.2667 1.66508,-2.0418 3.90747,-3.0627 6.72719,-3.0627 2.10261,0 3.82543,0.5895 5.16845,1.7684 1.34299,1.1789 2.14819,2.8075 2.41559,4.8858 z m -13.39969,11.5219 c 0,1.1304 0.24003,2.2121 0.72012,3.2451 0.48007,1.0331 1.15158,1.8201 2.01451,2.3609 0.86292,0.5409 1.76839,0.8113 2.7164,0.8113 1.38554,0 2.57662,-0.5591 3.57325,-1.6772 0.99661,-1.1182 1.49492,-2.6374 1.49493,-4.5577 -1e-5,-1.8474 -0.49224,-3.3029 -1.4767,-4.3663 -0.98448,-1.0635 -2.22417,-1.5952 -3.71909,-1.5952 -1.48279,0 -2.74072,0.5317 -3.7738,1.5952 -1.03308,1.0634 -1.54962,2.4581 -1.54962,4.1839 z"
                 style="font-size:37.33683014px;font-variant:normal;font-weight:normal;writing-mode:lr-tb;fill:#000000;fill-opacity:1;fill-rule:nonzero;stroke:none;font-family:Helvetica;-inkscape-font-specification:Helvetica"
                 id="path3148" />
            </g>
            <path
               id="path3810"
               style="fill:none;stroke:#000000;stroke-width:5;stroke-linecap:butt;stroke-linejoin:round;stroke-miterlimit:10;stroke-opacity:1;stroke-dasharray:none"
               d="m 770.22297,2650.7478 16.80158,0"
               inkscape:connector-curvature="0" />
            <path
               id="path3812"
               style="fill:none;stroke:#000000;stroke-width:5;stroke-linecap:butt;stroke-linejoin:round;stroke-miterlimit:10;stroke-opacity:1;stroke-dasharray:none"
               d="m 2436.3798,2650.7478 -16.8016,0"
               inkscape:connector-curvature="0" />
            <g
               transform="scale(1,-1)"
               style="font-size:44.8041954px;stroke-width:5;stroke-miterlimit:10"
               id="text3816">
              <path
                 d="m 745.39688,-2651.5499 c -1.36125,-0.4983 -2.37002,-1.2093 -3.02633,-2.1331 -0.65631,-0.9236 -0.98447,-2.0296 -0.98446,-3.318 -10e-6,-1.9446 0.69884,-3.5793 2.09655,-4.9041 1.39769,-1.3247 3.25724,-1.9871 5.57864,-1.9871 2.33354,0 4.21132,0.6776 5.63334,2.0327 1.422,1.3552 2.133,3.0051 2.13302,4.9497 -2e-5,1.2397 -0.32514,2.3184 -0.97536,3.236 -0.65025,0.9176 -1.63775,1.6256 -2.96251,2.1239 1.64076,0.5347 2.88957,1.3977 3.74644,2.5887 0.85683,1.1911 1.28526,2.6131 1.28528,4.2661 -2e-5,2.2849 -0.80825,4.2052 -2.42471,5.7609 -1.61648,1.5557 -3.74342,2.3336 -6.3808,2.3336 -2.63741,0 -4.76434,-0.7809 -6.38081,-2.3427 -1.61647,-1.5618 -2.42471,-3.5094 -2.42471,-5.843 0,-1.738 0.44058,-3.1934 1.32174,-4.3663 0.88116,-1.1728 2.13605,-1.9719 3.76468,-2.3973 z m -0.65631,-5.5605 c -1e-5,1.2641 0.40715,2.2971 1.22147,3.0993 0.8143,0.8022 1.87169,1.2032 3.17217,1.2032 1.26399,0 2.30011,-0.398 3.10836,-1.1941 0.80822,-0.7961 1.21234,-1.7714 1.21236,-2.926 -2e-5,-1.2033 -0.41629,-2.2151 -1.24882,-3.0355 -0.83256,-0.8204 -1.86868,-1.2305 -3.10836,-1.2306 -1.25187,1e-4 -2.29103,0.4011 -3.11748,1.2033 -0.82648,0.8021 -1.23971,1.7623 -1.2397,2.8804 z m -1.05739,12.3423 c -10e-6,0.9359 0.2218,1.8414 0.66542,2.7164 0.44362,0.8751 1.10296,1.5527 1.97805,2.0328 0.87508,0.4801 1.817,0.7201 2.82579,0.7201 1.56784,0 2.86223,-0.5044 3.88317,-1.5132 1.02092,-1.0087 1.53138,-2.291 1.5314,-3.8467 -2e-5,-1.58 -0.52567,-2.8865 -1.57697,-3.9196 -1.05133,-1.0331 -2.36699,-1.5496 -3.94699,-1.5496 -1.54355,0 -2.82275,0.5104 -3.8376,1.5314 -1.01485,1.0209 -1.52228,2.2971 -1.52227,3.8284 z"
                 style="font-size:37.33683014px;font-variant:normal;font-weight:normal;writing-mode:lr-tb;fill:#000000;fill-opacity:1;fill-rule:nonzero;stroke:none;font-family:Helvetica;-inkscape-font-specification:Helvetica"
                 id="path3145" />
            </g>
            <path
               id="path3820"
               style="fill:none;stroke:#000000;stroke-width:5;stroke-linecap:butt;stroke-linejoin:round;stroke-miterlimit:10;stroke-opacity:1;stroke-dasharray:none"
               d="m 770.22297,2782.0465 16.80158,0"
               inkscape:connector-curvature="0" />
            <path
               id="path3822"
               style="fill:none;stroke:#000000;stroke-width:5;stroke-linecap:butt;stroke-linejoin:round;stroke-miterlimit:10;stroke-opacity:1;stroke-dasharray:none"
               d="m 2436.3798,2782.0465 -16.8016,0"
               inkscape:connector-curvature="0" />
            <g
               transform="scale(1,-1)"
               style="font-size:44.8041954px;stroke-width:5;stroke-miterlimit:10"
               id="text3826">
              <path
                 d="m 731.86157,-2768.3589 -3.28155,0 0,-20.9108 c -0.79002,0.7536 -1.82614,1.5071 -3.10837,2.2606 -1.28224,0.7536 -2.43383,1.3187 -3.45475,1.6955 l 0,-3.1722 c 1.83524,-0.8629 3.43955,-1.9081 4.81295,-3.1357 1.37338,-1.2275 2.3457,-2.4186 2.91694,-3.5732 l 2.11478,0 z"
                 style="font-size:37.33683014px;font-variant:normal;font-weight:normal;writing-mode:lr-tb;fill:#000000;fill-opacity:1;fill-rule:nonzero;stroke:none;font-family:Helvetica;-inkscape-font-specification:Helvetica"
                 id="path3140" />
              <path
                 d="m 740.26032,-2781.5398 c 0,-3.16 0.32511,-5.7032 0.97535,-7.6296 0.65023,-1.9264 1.61647,-3.4122 2.89871,-4.4575 1.28223,-1.0452 2.89566,-1.5678 4.8403,-1.5678 1.43415,0 2.69207,0.2886 3.77379,0.8659 1.08168,0.5774 1.97499,1.4099 2.67993,2.4977 0.70491,1.0878 1.25792,2.4125 1.65901,3.9743 0.40106,1.5618 0.6016,3.6675 0.60162,6.317 -2e-5,3.1357 -0.32209,5.6668 -0.96623,7.5932 -0.64418,1.9263 -1.60737,3.4152 -2.8896,4.4665 -1.28225,1.0513 -2.90176,1.577 -4.85852,1.577 -2.57664,0 -4.60027,-0.9237 -6.07089,-2.7711 -1.76232,-2.2242 -2.64347,-5.846 -2.64347,-10.8656 z m 3.37271,0 c -10e-6,4.3876 0.5135,7.3075 1.54051,8.7599 1.027,1.4524 2.29404,2.1786 3.80114,2.1786 1.50707,0 2.77411,-0.7292 3.80113,-2.1877 1.02699,-1.4585 1.5405,-4.3754 1.54051,-8.7508 -10e-6,-4.3997 -0.51352,-7.3227 -1.54051,-8.7691 -1.02702,-1.4463 -2.30621,-2.1694 -3.8376,-2.1694 -1.50709,0 -2.71033,0.6381 -3.60971,1.9142 -1.13032,1.6287 -1.69548,4.6367 -1.69547,9.0243 z"
                 style="font-size:37.33683014px;font-variant:normal;font-weight:normal;writing-mode:lr-tb;fill:#000000;fill-opacity:1;fill-rule:nonzero;stroke:none;font-family:Helvetica;-inkscape-font-specification:Helvetica"
                 id="path3142" />
            </g>
            <path
               id="path3830"
               style="fill:none;stroke:#000000;stroke-width:5;stroke-linecap:butt;stroke-linejoin:round;stroke-miterlimit:10;stroke-opacity:1;stroke-dasharray:none"
               d="m 770.22297,2913.3489 16.80158,0"
               inkscape:connector-curvature="0" />
            <path
               id="path3832"
               style="fill:none;stroke:#000000;stroke-width:5;stroke-linecap:butt;stroke-linejoin:round;stroke-miterlimit:10;stroke-opacity:1;stroke-dasharray:none"
               d="m 2436.3798,2913.3489 -16.8016,0"
               inkscape:connector-curvature="0" />
            <g
               transform="scale(1,-1)"
               style="font-size:44.8041954px;stroke-width:5;stroke-miterlimit:10"
               id="text3836">
              <path
                 d="m 731.86157,-2899.6575 -3.28155,0 0,-20.9108 c -0.79002,0.7536 -1.82614,1.5071 -3.10837,2.2606 -1.28224,0.7536 -2.43383,1.3188 -3.45475,1.6955 l 0,-3.1722 c 1.83524,-0.8629 3.43955,-1.9081 4.81295,-3.1357 1.37338,-1.2275 2.3457,-2.4186 2.91694,-3.5732 l 2.11478,0 z"
                 style="font-size:37.33683014px;font-variant:normal;font-weight:normal;writing-mode:lr-tb;fill:#000000;fill-opacity:1;fill-rule:nonzero;stroke:none;font-family:Helvetica;-inkscape-font-specification:Helvetica"
                 id="path3135" />
              <path
                 d="m 757.50672,-2902.8114 0,3.1539 -17.66571,0 c -0.0243,-0.79 0.1033,-1.5496 0.38285,-2.2788 0.44969,-1.2033 1.16981,-2.3883 2.16035,-3.5551 0.99054,-1.1667 2.42167,-2.5158 4.29338,-4.0472 2.90477,-2.3822 4.86763,-4.2691 5.88857,-5.6607 1.02091,-1.3916 1.53138,-2.7073 1.53139,-3.947 -10e-6,-1.3004 -0.4649,-2.3973 -1.39466,-3.2906 -0.92979,-0.8933 -2.14214,-1.34 -3.63706,-1.34 -1.58002,0 -2.84402,0.474 -3.79202,1.422 -0.94801,0.948 -1.42809,2.2606 -1.44024,3.9379 l -3.37271,-0.3464 c 0.23092,-2.5159 1.09992,-4.4331 2.60701,-5.7519 1.50708,-1.3186 3.53071,-1.978 6.07088,-1.978 2.56447,0 4.59417,0.711 6.08912,2.133 1.49491,1.422 2.24237,3.1843 2.24239,5.2869 -2e-5,1.0696 -0.21879,2.1209 -0.65631,3.154 -0.43756,1.0331 -1.16375,2.1209 -2.17859,3.2633 -1.01487,1.1425 -2.70122,2.7103 -5.05907,4.7036 -1.96894,1.6529 -3.23294,2.7741 -3.79202,3.3636 -0.55908,0.5894 -1.02093,1.1819 -1.38554,1.7775 z"
                 style="font-size:37.33683014px;font-variant:normal;font-weight:normal;writing-mode:lr-tb;fill:#000000;fill-opacity:1;fill-rule:nonzero;stroke:none;font-family:Helvetica;-inkscape-font-specification:Helvetica"
                 id="path3137" />
            </g>
            <path
               id="path3840"
               style="fill:none;stroke:#000000;stroke-width:5;stroke-linecap:butt;stroke-linejoin:round;stroke-miterlimit:10;stroke-opacity:1;stroke-dasharray:none"
               d="m 770.22297,3044.9612 16.80158,0"
               inkscape:connector-curvature="0" />
            <path
               id="path3842"
               style="fill:none;stroke:#000000;stroke-width:5;stroke-linecap:butt;stroke-linejoin:round;stroke-miterlimit:10;stroke-opacity:1;stroke-dasharray:none"
               d="m 2436.3798,3044.9612 -16.8016,0"
               inkscape:connector-curvature="0" />
            <g
               transform="scale(1,-1)"
               style="font-size:44.8041954px;stroke-width:5;stroke-miterlimit:10"
               id="text3846">
              <path
                 d="m 731.86157,-3031.2698 -3.28155,0 0,-20.9108 c -0.79002,0.7536 -1.82614,1.5071 -3.10837,2.2606 -1.28224,0.7536 -2.43383,1.3188 -3.45475,1.6955 l 0,-3.1722 c 1.83524,-0.8629 3.43955,-1.9081 4.81295,-3.1357 1.37338,-1.2275 2.3457,-2.4186 2.91694,-3.5732 l 2.11478,0 z"
                 style="font-size:37.33683014px;font-variant:normal;font-weight:normal;writing-mode:lr-tb;fill:#000000;fill-opacity:1;fill-rule:nonzero;stroke:none;font-family:Helvetica;-inkscape-font-specification:Helvetica"
                 id="path3130" />
              <path
                 d="m 750.77953,-3031.2698 0,-6.399 -11.59483,0 0,-3.0081 12.19645,-17.3193 2.67994,0 0,17.3193 3.60971,0 0,3.0081 -3.60971,0 0,6.399 z m 0,-9.4071 0,-12.0506 -8.36797,12.0506 z"
                 style="font-size:37.33683014px;font-variant:normal;font-weight:normal;writing-mode:lr-tb;fill:#000000;fill-opacity:1;fill-rule:nonzero;stroke:none;font-family:Helvetica;-inkscape-font-specification:Helvetica"
                 id="path3132" />
            </g>
            <path
               id="path3850"
               style="fill:none;stroke:#000000;stroke-width:5;stroke-linecap:butt;stroke-linejoin:round;stroke-miterlimit:10;stroke-opacity:1;stroke-dasharray:none"
               d="m 770.22297,3176.2637 16.80158,0"
               inkscape:connector-curvature="0" />
            <path
               id="path3852"
               style="fill:none;stroke:#000000;stroke-width:5;stroke-linecap:butt;stroke-linejoin:round;stroke-miterlimit:10;stroke-opacity:1;stroke-dasharray:none"
               d="m 2436.3798,3176.2637 -16.8016,0"
               inkscape:connector-curvature="0" />
            <g
               transform="scale(1,-1)"
               style="font-size:44.8041954px;stroke-width:5;stroke-miterlimit:10"
               id="text3856">
              <path
                 d="m 731.86157,-3162.5723 -3.28155,0 0,-20.9108 c -0.79002,0.7536 -1.82614,1.5071 -3.10837,2.2607 -1.28224,0.7535 -2.43383,1.3187 -3.45475,1.6954 l 0,-3.1722 c 1.83524,-0.8629 3.43955,-1.9081 4.81295,-3.1357 1.37338,-1.2275 2.3457,-2.4186 2.91694,-3.5732 l 2.11478,0 z"
                 style="font-size:37.33683014px;font-variant:normal;font-weight:normal;writing-mode:lr-tb;fill:#000000;fill-opacity:1;fill-rule:nonzero;stroke:none;font-family:Helvetica;-inkscape-font-specification:Helvetica"
                 id="path3125" />
              <path
                 d="m 757.28795,-3182.7538 -3.26332,0.2552 c -0.29171,-1.2883 -0.70494,-2.2242 -1.2397,-2.8076 -0.88725,-0.9358 -1.9811,-1.4037 -3.28156,-1.4037 -1.04525,0 -1.96287,0.2917 -2.75286,0.875 -1.03309,0.7536 -1.8474,1.8535 -2.44294,3.2998 -0.59555,1.4464 -0.90547,3.5064 -0.92977,6.1803 0.79,-1.2032 1.75623,-2.0965 2.89871,-2.6799 1.14246,-0.5834 2.33962,-0.8751 3.59148,-0.8751 2.18769,0 4.05028,0.8052 5.58776,2.4156 1.53745,1.6104 2.30619,3.6917 2.30621,6.244 -2e-5,1.6773 -0.3616,3.236 -1.08474,4.6763 -0.72318,1.4402 -1.71676,2.5432 -2.98075,3.3089 -1.26402,0.7657 -2.69818,1.1485 -4.30248,1.1485 -2.73464,0 -4.96488,-1.0057 -6.69074,-3.0172 -1.72585,-2.0115 -2.58878,-5.3264 -2.58878,-9.9449 0,-5.1654 0.95408,-8.921 2.86225,-11.2667 1.66508,-2.0419 3.90747,-3.0628 6.72719,-3.0628 2.10261,0 3.82543,0.5895 5.16845,1.7684 1.34299,1.1789 2.14819,2.8076 2.41559,4.8859 z m -13.39969,11.5219 c 0,1.1303 0.24004,2.212 0.72012,3.2451 0.48007,1.0331 1.15158,1.82 2.01451,2.3609 0.86292,0.5408 1.76839,0.8112 2.7164,0.8112 1.38554,0 2.57662,-0.559 3.57325,-1.6772 0.99661,-1.1182 1.49492,-2.6374 1.49494,-4.5577 -2e-5,-1.8474 -0.49225,-3.3028 -1.4767,-4.3663 -0.98449,-1.0635 -2.22418,-1.5952 -3.7191,-1.5952 -1.48279,0 -2.74072,0.5317 -3.77379,1.5952 -1.03309,1.0635 -1.54963,2.4581 -1.54963,4.184 z"
                 style="font-size:37.33683014px;font-variant:normal;font-weight:normal;writing-mode:lr-tb;fill:#000000;fill-opacity:1;fill-rule:nonzero;stroke:none;font-family:Helvetica;-inkscape-font-specification:Helvetica"
                 id="path3127" />
            </g>
            <path
               id="path3860"
               style="fill:none;stroke:#000000;stroke-width:5;stroke-linecap:butt;stroke-linejoin:round;stroke-miterlimit:10;stroke-opacity:1;stroke-dasharray:none"
               d="m 770.22297,3307.876 16.80158,0"
               inkscape:connector-curvature="0" />
            <path
               id="path3862"
               style="fill:none;stroke:#000000;stroke-width:5;stroke-linecap:butt;stroke-linejoin:round;stroke-miterlimit:10;stroke-opacity:1;stroke-dasharray:none"
               d="m 2436.3798,3307.876 -16.8016,0"
               inkscape:connector-curvature="0" />
            <g
               transform="scale(1,-1)"
               style="font-size:44.8041954px;stroke-width:5;stroke-miterlimit:10"
               id="text3866">
              <path
                 d="m 731.86157,-3294.1846 -3.28155,0 0,-20.9108 c -0.79002,0.7536 -1.82614,1.5071 -3.10837,2.2606 -1.28224,0.7536 -2.43383,1.3188 -3.45475,1.6955 l 0,-3.1722 c 1.83524,-0.8629 3.43955,-1.9081 4.81295,-3.1357 1.37338,-1.2275 2.3457,-2.4186 2.91694,-3.5732 l 2.11478,0 z"
                 style="font-size:37.33683014px;font-variant:normal;font-weight:normal;writing-mode:lr-tb;fill:#000000;fill-opacity:1;fill-rule:nonzero;stroke:none;font-family:Helvetica;-inkscape-font-specification:Helvetica"
                 id="path3120" />
              <path
                 d="m 745.31027,-3308.6781 c -1.36124,-0.4983 -2.37002,-1.2093 -3.02633,-2.133 -0.65631,-0.9237 -0.98447,-2.0297 -0.98446,-3.318 -10e-6,-1.9447 0.69884,-3.5794 2.09655,-4.9042 1.39769,-1.3247 3.25724,-1.9871 5.57865,-1.9871 2.33353,0 4.21131,0.6776 5.63334,2.0327 1.42199,1.3552 2.13299,3.0051 2.13301,4.9497 -2e-5,1.2397 -0.32514,2.3184 -0.97535,3.236 -0.65025,0.9176 -1.63776,1.6256 -2.96252,2.1239 1.64076,0.5348 2.88958,1.3977 3.74644,2.5888 0.85684,1.1911 1.28526,2.6131 1.28528,4.266 -2e-5,2.2849 -0.80825,4.2053 -2.42471,5.7609 -1.61648,1.5558 -3.74342,2.3336 -6.3808,2.3336 -2.63741,0 -4.76434,-0.7809 -6.38081,-2.3427 -1.61647,-1.5617 -2.42471,-3.5094 -2.4247,-5.843 -10e-6,-1.738 0.44057,-3.1934 1.32173,-4.3663 0.88116,-1.1728 2.13605,-1.9719 3.76468,-2.3973 z m -0.65631,-5.5604 c -10e-6,1.264 0.40715,2.2971 1.22147,3.0992 0.8143,0.8022 1.87169,1.2033 3.17217,1.2033 1.26399,0 2.30011,-0.3981 3.10836,-1.1942 0.80822,-0.796 1.21234,-1.7714 1.21236,-2.926 -2e-5,-1.2032 -0.41629,-2.2151 -1.24882,-3.0355 -0.83255,-0.8203 -1.86867,-1.2305 -3.10836,-1.2305 -1.25187,0 -2.29102,0.4011 -3.11748,1.2032 -0.82647,0.8022 -1.23971,1.7623 -1.2397,2.8805 z m -1.05739,12.3423 c -1e-5,0.9358 0.2218,1.8413 0.66542,2.7164 0.44362,0.8751 1.10297,1.5526 1.97805,2.0327 0.87508,0.4801 1.81701,0.7201 2.82579,0.7201 1.56784,0 2.86223,-0.5044 3.88318,-1.5131 1.02091,-1.0088 1.53137,-2.291 1.53139,-3.8467 -2e-5,-1.58 -0.52567,-2.8866 -1.57697,-3.9197 -1.05133,-1.0331 -2.36699,-1.5496 -3.94699,-1.5496 -1.54355,0 -2.82275,0.5105 -3.83759,1.5314 -1.01486,1.0209 -1.52229,2.2971 -1.52228,3.8285 z"
                 style="font-size:37.33683014px;font-variant:normal;font-weight:normal;writing-mode:lr-tb;fill:#000000;fill-opacity:1;fill-rule:nonzero;stroke:none;font-family:Helvetica;-inkscape-font-specification:Helvetica"
                 id="path3122" />
            </g>
            <path
               id="path3870"
               style="fill:none;stroke:#000000;stroke-width:5;stroke-linecap:butt;stroke-linejoin:round;stroke-miterlimit:10;stroke-opacity:1;stroke-dasharray:none"
               d="m 770.22297,3439.1747 16.80158,0"
               inkscape:connector-curvature="0" />
            <path
               id="path3872"
               style="fill:none;stroke:#000000;stroke-width:5;stroke-linecap:butt;stroke-linejoin:round;stroke-miterlimit:10;stroke-opacity:1;stroke-dasharray:none"
               d="m 2436.3798,3439.1747 -16.8016,0"
               inkscape:connector-curvature="0" />
            <g
               transform="scale(1,-1)"
               style="font-size:44.8041954px;stroke-width:5;stroke-miterlimit:10"
               id="text3876">
              <path
                 d="m 736.74745,-3428.641 0,3.1539 -17.66572,0 c -0.0243,-0.79 0.10331,-1.5496 0.38285,-2.2788 0.44969,-1.2033 1.16981,-2.3883 2.16036,-3.555 0.99054,-1.1668 2.42166,-2.5159 4.29337,-4.0473 2.90477,-2.3821 4.86763,-4.269 5.88857,-5.6607 1.02091,-1.3916 1.53138,-2.7072 1.53139,-3.947 -10e-6,-1.3004 -0.4649,-2.3973 -1.39466,-3.2906 -0.92979,-0.8933 -2.14214,-1.34 -3.63706,-1.34 -1.58002,0 -2.84402,0.474 -3.79202,1.422 -0.94801,0.948 -1.42809,2.2607 -1.44024,3.9379 l -3.37271,-0.3464 c 0.23092,-2.5159 1.09993,-4.4331 2.60701,-5.7519 1.50708,-1.3186 3.53071,-1.978 6.07089,-1.978 2.56446,0 4.59416,0.711 6.08911,2.133 1.49491,1.422 2.24238,3.1844 2.2424,5.287 -2e-5,1.0695 -0.21879,2.1208 -0.65632,3.1539 -0.43755,1.0331 -1.16375,2.1209 -2.17859,3.2633 -1.01486,1.1425 -2.70122,2.7104 -5.05906,4.7036 -1.96895,1.6529 -3.23295,2.7741 -3.79202,3.3636 -0.55909,0.5895 -1.02094,1.182 -1.38555,1.7775 z"
                 style="font-size:37.33683014px;font-variant:normal;font-weight:normal;writing-mode:lr-tb;fill:#000000;fill-opacity:1;fill-rule:nonzero;stroke:none;font-family:Helvetica;-inkscape-font-specification:Helvetica"
                 id="path3115" />
              <path
                 d="m 740.26032,-3438.668 c 0,-3.16 0.32511,-5.7032 0.97535,-7.6296 0.65023,-1.9264 1.61647,-3.4122 2.89871,-4.4575 1.28223,-1.0452 2.89566,-1.5678 4.8403,-1.5678 1.43415,0 2.69207,0.2887 3.77379,0.866 1.08168,0.5773 1.97499,1.4098 2.67993,2.4976 0.70491,1.0878 1.25792,2.4126 1.65901,3.9743 0.40106,1.5618 0.6016,3.6675 0.60162,6.317 -2e-5,3.1357 -0.32209,5.6668 -0.96623,7.5932 -0.64418,1.9264 -1.60737,3.4152 -2.8896,4.4665 -1.28225,1.0514 -2.90176,1.577 -4.85852,1.577 -2.57664,0 -4.60027,-0.9237 -6.07089,-2.7711 -1.76232,-2.2241 -2.64347,-5.846 -2.64347,-10.8656 z m 3.37271,0 c -10e-6,4.3876 0.5135,7.3076 1.54051,8.76 1.027,1.4523 2.29404,2.1785 3.80114,2.1785 1.50707,0 2.77411,-0.7292 3.80113,-2.1877 1.02699,-1.4584 1.5405,-4.3754 1.54051,-8.7508 -10e-6,-4.3997 -0.51352,-7.3227 -1.54051,-8.769 -1.02702,-1.4463 -2.30621,-2.1695 -3.8376,-2.1695 -1.50709,0 -2.71033,0.6381 -3.60971,1.9142 -1.13032,1.6287 -1.69548,4.6368 -1.69547,9.0243 z"
                 style="font-size:37.33683014px;font-variant:normal;font-weight:normal;writing-mode:lr-tb;fill:#000000;fill-opacity:1;fill-rule:nonzero;stroke:none;font-family:Helvetica;-inkscape-font-specification:Helvetica"
                 id="path3117" />
            </g>
            <g
               id="g5387"
               style="stroke:#70ff8d">
              <path
                 sodipodi:nodetypes="cccccccccccccccccccccccccccccccccccccccccccccccccccccccccccccccccccccccccc"
                 inkscape:connector-curvature="0"
                 d="m 2182.1757,2409.6116 -28.3125,2.8003 -23.3356,2.1804 -4.6671,0.3099 -28.3125,2.8003 -28.3162,2.8003 -28.3125,2.8002 -28.0027,2.8003 -28.3125,3.1102 -28.3162,2.8002 -28.3126,3.1139 -14.0013,1.5532 -14.0013,1.557 -28.3125,3.4238 -28.3163,3.42 -28.3125,3.1139 -28.3125,3.7337 -28.0026,3.42 -27.6927,3.7337 -0.6236,0 -28.3125,3.7337 -28.3125,4.0473 -28.0026,4.0436 -28.3163,4.0436 -28.3125,4.3572 -12.1345,1.8668 -16.178,2.8003 -28.0026,4.3572 -28.3163,4.977 -28.3125,4.977 -28.3125,4.9807 -1.2471,0.3099 -26.7555,4.977 -28.3163,5.6005 -28.3125,5.9142 -26.4457,5.9104 -1.8668,0.3099 -28.3163,6.2241 -28.0026,6.8438 -28.3125,7.1575 -6.2241,1.5569 -22.0884,5.9104 -28.3163,8.0909 -28.0026,8.4008 0,0 -28.3125,9.0206 -28.3126,9.6478 -9.3342,3.4201 -18.982,7.1575 -28.0026,11.5109 -8.7107,3.7337 -19.6018,8.7144 -28.00266,13.6877 -0.3099,0 -28.31625,15.5582 -10.57753,6.534 -17.42509,10.8911 -16.17805,11.511 -12.13447,8.7107 -15.86816,13.3815 -12.44436,10.5775 -11.51468,11.8246 -16.80157,17.4213 -3.73369,4.9808 -16.48794,22.0884 -7.781,10.5813 -6.53394,11.8208 -11.82084,22.0922 -9.95773,18.9784 -1.24407,3.4237 -6.84608,22.4021 -7.15523,22.0922 -6.84608,22.4021 -6.22181,19.6019"
                 style="fill:none;stroke:#70ff8d;stroke-width:5;stroke-linecap:butt;stroke-linejoin:round;stroke-miterlimit:10;stroke-opacity:1;stroke-dasharray:none"
                 id="path3922" />
              <path
                 sodipodi:nodetypes="ccccccccccc"
                 inkscape:connector-curvature="0"
                 d="m 2436.3798,2388.4566 -28.3163,2.1767 -21.155,1.557 -7.1575,0.6197 -28.0026,2.1805 -28.3126,2.4866 -28.3162,2.1805 -28.3125,2.4866 -28.0027,2.4904 -28.3125,2.4904 -28.3162,2.4866"
                 style="fill:none;stroke:#70ff8d;stroke-width:5;stroke-linecap:butt;stroke-linejoin:round;stroke-miterlimit:10;stroke-opacity:1;stroke-dasharray:none"
                 id="path3924" />
            </g>
            <path
               id="path3930"
               style="fill:none;stroke:#ffff00;stroke-width:5;stroke-linecap:butt;stroke-linejoin:round;stroke-miterlimit:10;stroke-opacity:1;stroke-dasharray:none"
               d="m 2436.3798,2650.3506 -28.3163,2.1767 -28.3125,2.1767 -28.0026,2.1805 -28.3126,2.4866 -4.6671,0.3137 -23.6491,1.8668 -28.3125,2.4867 -28.0027,2.4903 -28.3125,2.4904 -28.3162,2.4866 -28.3125,2.8003 -28.0027,2.4903 -28.3125,2.8003 -24.8924,2.4904 -3.4238,0.3099 -28.3125,2.8002 -28.0027,2.8003 -28.3125,3.1102 -28.3162,2.8002 -28.3126,3.1139 -28.0026,3.1102 -28.3125,3.4238 -6.5339,0.6197 -21.7824,2.8003 -28.3125,3.1139 -28.3125,3.7337 -28.0026,3.42 -28.3163,3.7337 -28.3125,3.7337 -12.1344,1.8668 -16.1781,2.1805 -28.0026,4.0436 -28.3163,4.0436 -28.3125,4.3572 -28.3125,4.6671 -18.6684,2.8002 -9.3342,1.557 -28.3163,4.977 -28.3125,4.977 -28.3125,4.9807 -28.0026,5.2869 -2.4904,0.6235 -25.8259,4.977 -28.3125,5.9142 -28.3125,6.2203 -23.0257,5.2906 -5.2906,0.9335 -28.0026,6.8438 -28.3125,7.1575 -27.3791,7.1574 -0.9334,0.3099 -28.3163,8.0909 -28.0026,8.4008 -17.4214,5.6005 -10.8911,3.4201 -28.3126,9.6478 -24.2689,9.0206 -4.0473,1.557 -28.0026,11.5109 -21.4687,9.3342 -6.8438,3.1139 -28.31256,13.6877 -9.64784,5.6005 -18.66841,9.9577 -19.60184,12.1345 -8.40078,5.2906 -23.95531,17.1115 -4.35721,3.1102 -22.712,18.982 -5.60052,4.977 -16.80157,17.4251 -11.51468,11.8208 -7.77726,10.5813 -16.80158,22.0885 -3.42379,4.9807 -9.3342,17.4214 -12.13447,22.0922 -6.84384,13.3778 -2.80027,9.0243 -7.15672,22.0922 -6.84459,22.4021 -7.15672,22.4021 -4.35497,14.0013"
               inkscape:connector-curvature="0"
               sodipodi:nodetypes="cccccccccccccccccccccccccccccccccccccccccccccccccccccccccccccccccccccccccccccccccccc" />
            <g
               id="g5374">
              <path
                 inkscape:connector-curvature="0"
                 d="m 770.22297,3439.1747 1666.15683,0"
                 style="fill:none;stroke:#000000;stroke-width:5;stroke-linecap:butt;stroke-linejoin:round;stroke-miterlimit:10;stroke-opacity:1;stroke-dasharray:none"
                 id="path3658" />
              <path
                 inkscape:connector-curvature="0"
                 d="m 770.22297,2124.9183 1666.15683,0"
                 style="fill:none;stroke:#000000;stroke-width:5;stroke-linecap:butt;stroke-linejoin:round;stroke-miterlimit:10;stroke-opacity:1;stroke-dasharray:none"
                 id="path3660" />
              <path
                 inkscape:connector-curvature="0"
                 d="m 2436.3798,2124.9183 0,1314.2564"
                 style="fill:none;stroke:#000000;stroke-width:5;stroke-linecap:butt;stroke-linejoin:round;stroke-miterlimit:10;stroke-opacity:1;stroke-dasharray:none"
                 id="path3662" />
              <path
                 inkscape:connector-curvature="0"
                 d="m 770.22297,2124.9183 0,1314.2564"
                 style="fill:none;stroke:#000000;stroke-width:5;stroke-linecap:butt;stroke-linejoin:round;stroke-miterlimit:10;stroke-opacity:1;stroke-dasharray:none"
                 id="path3664" />
            </g>
            <path
               sodipodi:nodetypes="ccccccccccccccccccccccccccccccccccccccccccccccccccccccccccccccccccccccccccccccccccc"
               inkscape:connector-curvature="0"
               d="m 2436.3798,2915.0106 -28.3163,2.1767 -28.3125,2.1767 -28.0026,2.1805 -28.3126,2.4866 -4.6671,0.3137 -23.6491,1.8668 -28.3125,2.4867 -28.0027,2.4903 -28.3125,2.4904 -28.3162,2.4866 -28.3125,2.8003 -28.0027,2.4903 -28.3125,2.8003 -24.8924,2.4904 -3.4238,0.3099 -28.3125,2.8002 -28.0027,2.8003 -28.3125,3.1102 -28.3162,2.8002 -28.3126,3.1139 -28.0026,3.1102 -28.3125,3.4238 -6.5339,0.6197 -21.7824,2.8003 -28.3125,3.1139 -28.3125,3.7337 -28.0026,3.42 -28.3163,3.7337 -28.3125,3.7337 -12.1344,1.8668 -16.1781,2.1805 -28.0026,4.0436 -28.3163,4.0436 -28.3125,4.3572 -28.3125,4.6671 -18.6684,2.8002 -9.3342,1.557 -28.3163,4.977 -28.3125,4.977 -28.3125,4.9807 -28.0026,5.2869 -2.4904,0.6235 -25.8259,4.977 -28.3125,5.9142 -28.3125,6.2203 -23.0257,5.2906 -5.2906,0.9335 -28.0026,6.8438 -28.3125,7.1575 -27.3791,7.1574 -0.9334,0.3099 -28.3163,8.0909 -28.0026,8.4008 -17.4214,5.6005 -10.8911,3.4201 -28.3126,9.6478 -24.2689,9.0206 -4.0473,1.557 -28.0026,11.5109 -21.4687,9.3342 -6.8438,3.1139 -28.31256,13.6877 -9.64784,5.6005 -18.66841,9.9577 -19.60184,12.1345 -8.40078,5.2906 -23.95531,17.1115 -4.35721,3.1102 -22.712,18.982 -5.60052,4.977 -16.80157,17.4251 -11.51468,11.8208 -7.77726,10.5813 -16.80158,22.0885 -3.42379,4.9807 -9.3342,17.4214 -12.13447,22.0922 -6.84384,13.3778 -2.80027,9.0243 -7.15672,22.0922 -6.84459,22.4021 -7.15672,22.4021"
               style="fill:none;stroke:#ff7000;stroke-width:5;stroke-linecap:butt;stroke-linejoin:round;stroke-miterlimit:10;stroke-opacity:1;stroke-dasharray:none;fill-opacity:1"
               id="path5405" />
            <g
               id="g5407"
               transform="translate(0,-260.61936)"
               style="stroke:#007fff">
              <path
                 id="path5409"
                 style="fill:none;stroke:#007fff;stroke-width:5;stroke-linecap:butt;stroke-linejoin:round;stroke-miterlimit:10;stroke-opacity:1;stroke-dasharray:none"
                 d="m 2182.1757,2409.6116 -28.3125,2.8003 -23.3356,2.1804 -4.6671,0.3099 -28.3125,2.8003 -28.3162,2.8003 -28.3125,2.8002 -28.0027,2.8003 -28.3125,3.1102 -28.3162,2.8002 -28.3126,3.1139 -14.0013,1.5532 -14.0013,1.557 -28.3125,3.4238 -28.3163,3.42 -28.3125,3.1139 -28.3125,3.7337 -28.0026,3.42 -27.6927,3.7337 -0.6236,0 -28.3125,3.7337 -28.3125,4.0473 -28.0026,4.0436 -28.3163,4.0436 -28.3125,4.3572 -12.1345,1.8668 -16.178,2.8003 -28.0026,4.3572 -28.3163,4.977 -28.3125,4.977 -28.3125,4.9807 -1.2471,0.3099 -26.7555,4.977 -28.3163,5.6005 -28.3125,5.9142 -26.4457,5.9104 -1.8668,0.3099 -28.3163,6.2241 -28.0026,6.8438 -28.3125,7.1575 -6.2241,1.5569 -22.0884,5.9104 -28.3163,8.0909 -28.0026,8.4008 0,0 -28.3125,9.0206 -28.3126,9.6478 -9.3342,3.4201 -18.982,7.1575 -28.0026,11.5109 -8.7107,3.7337 -19.6018,8.7144 -28.00266,13.6877 -0.3099,0 -28.31625,15.5582 -10.57753,6.534 -17.42509,10.8911 -16.17805,11.511 -12.13447,8.7107 -15.86816,13.3815 -12.44436,10.5775 -11.51468,11.8246 -16.80157,17.4213 -3.73369,4.9808 -16.48794,22.0884 -7.781,10.5813 -6.53394,11.8208 -11.82084,22.0922 -9.95773,18.9784 -1.24407,3.4237 -6.84608,22.4021 -7.15523,22.0922 -6.84608,22.4021 -6.22181,19.6019"
                 inkscape:connector-curvature="0"
                 sodipodi:nodetypes="cccccccccccccccccccccccccccccccccccccccccccccccccccccccccccccccccccccccccc" />
              <path
                 id="path5411"
                 style="fill:none;stroke:#007fff;stroke-width:5;stroke-linecap:butt;stroke-linejoin:round;stroke-miterlimit:10;stroke-opacity:1;stroke-dasharray:none"
                 d="m 2436.3798,2388.4566 -28.3163,2.1767 -21.155,1.557 -7.1575,0.6197 -28.0026,2.1805 -28.3126,2.4866 -28.3162,2.1805 -28.3125,2.4866 -28.0027,2.4904 -28.3125,2.4904 -28.3162,2.4866"
                 inkscape:connector-curvature="0"
                 sodipodi:nodetypes="ccccccccccc" />
            </g>
            <path
               id="path5429"
               style="fill:none;stroke:#e20000;stroke-width:5;stroke-linecap:butt;stroke-linejoin:round;stroke-miterlimit:10;stroke-opacity:1;stroke-dasharray:none"
               d="m 2436.3798,3034.3452 -28.3163,2.1767 -28.3125,2.1767 -28.0026,2.1805 -28.3126,2.4866 -4.6671,0.3137 -23.6491,1.8668 -28.3125,2.4867 -28.0027,2.4903 -28.3125,2.4904 -28.3162,2.4866 -28.3125,2.8003 -28.0027,2.4903 -28.3125,2.8003 -24.8924,2.4904 -3.4238,0.3099 -28.3125,2.8002 -28.0027,2.8003 -28.3125,3.1102 -28.3162,2.8002 -28.3126,3.1139 -28.0026,3.1102 -28.3125,3.4238 -6.5339,0.6197 -21.7824,2.8003 -28.3125,3.1139 -28.3125,3.7337 -28.0026,3.42 -28.3163,3.7337 -28.3125,3.7337 -12.1344,1.8668 -16.1781,2.1805 -28.0026,4.0436 -28.3163,4.0436 -28.3125,4.3572 -28.3125,4.6671 -18.6684,2.8002 -9.3342,1.557 -28.3163,4.977 -28.3125,4.977 -28.3125,4.9807 -28.0026,5.2869 -2.4904,0.6235 -25.8259,4.977 -28.3125,5.9142 -28.3125,6.2203 -23.0257,5.2906 -5.2906,0.9335 -28.0026,6.8438 -28.3125,7.1575 -27.3791,7.1574 -0.9334,0.3099 -28.3163,8.0909 -28.0026,8.4008 -17.4214,5.6005 -10.8911,3.4201 -28.3126,9.6478 -24.2689,9.0206 -4.0473,1.557 -28.0026,11.5109 -21.4687,9.3342 -6.8438,3.1139 -28.31256,13.6877 -9.64784,5.6005 -18.66841,9.9577 -19.60184,12.1345 -8.40078,5.2906 -23.95531,17.1115 -4.35721,3.1102 -22.712,18.982 -5.60052,4.977 c -18.8224,15.5581 -26.55182,26.8682 -36.09351,39.8272 -6.76951,9.0062 -13.84205,17.7832 -20.22537,27.0692 l -8.17349,11.7071"
               inkscape:connector-curvature="0"
               sodipodi:nodetypes="cccccccccccccccccccccccccccccccccccccccccccccccccccccccccccccccccccccccccc" />
            <path
               sodipodi:nodetypes="ccccccccccccccccccccccccccccccccccccccccccccccccccccccccccccccccc"
               inkscape:connector-curvature="0"
               d="m 2436.3798,3176.8557 -28.3163,2.1767 -28.3125,2.1767 -28.0026,2.1805 -28.3126,2.4866 -4.6671,0.3137 -23.6491,1.8668 -28.3125,2.4867 -28.0027,2.4903 -28.3125,2.4904 -28.3162,2.4866 -28.3125,2.8003 -28.0027,2.4903 -28.3125,2.8003 -24.8924,2.4904 -3.4238,0.3099 -28.3125,2.8002 -28.0027,2.8003 -28.3125,3.1102 -28.3162,2.8002 -28.3126,3.1139 -28.0026,3.1102 -28.3125,3.4238 -6.5339,0.6197 -21.7824,2.8003 -28.3125,3.1139 -28.3125,3.7337 -28.0026,3.42 -28.3163,3.7337 -28.3125,3.7337 -12.1344,1.8668 -16.1781,2.1805 -28.0026,4.0436 -28.3163,4.0436 -28.3125,4.3572 -28.3125,4.6671 -18.6684,2.8002 -9.3342,1.557 -28.3163,4.977 -28.3125,4.977 -28.3125,4.9807 -28.0026,5.2869 -2.4904,0.6235 -25.8259,4.977 -28.3125,5.9142 -28.3125,6.2203 -23.0257,5.2906 -5.2906,0.9335 -28.0026,6.8438 -28.3125,7.1575 -27.3791,7.1574 -0.9334,0.3099 -28.3163,8.0909 -28.0026,8.4008 -17.4214,5.6005 -10.8911,3.4201 -28.3126,9.6478 -24.2689,9.0206 -4.0473,1.557 -28.0026,11.5109 -21.4687,9.3342 -6.8438,3.1139 -28.31256,13.6877 -9.64784,5.6005 -15.38541,8.1899"
               style="fill:none;stroke:#d40000;stroke-width:5;stroke-linecap:butt;stroke-linejoin:round;stroke-miterlimit:10;stroke-opacity:1;stroke-dasharray:none"
               id="path5431" />
            <g
               transform="translate(0,-520.61936)"
               id="g5491"
               style="stroke:#00007f">
              <path
                 sodipodi:nodetypes="ccccccccccccccccccccc"
                 inkscape:connector-curvature="0"
                 d="m 982.13573,2645.9377 c -9.58775,4.9 -4.84535,1.7698 -14.34044,6.9868 l -10.57753,6.534 -17.42509,10.8911 -16.17805,11.511 -12.13447,8.7107 -15.86816,13.3815 -12.44436,10.5775 -11.51468,11.8246 -16.80157,17.4213 -3.73369,4.9808 -16.48794,22.0884 -7.781,10.5813 -6.53394,11.8208 -11.82084,22.0922 -9.95773,18.9784 -1.24407,3.4237 -6.84608,22.4021 -7.15523,22.0922 -6.84608,22.4021 -6.22181,19.6019"
                 style="fill:none;stroke:#00007f;stroke-width:5;stroke-linecap:butt;stroke-linejoin:round;stroke-miterlimit:10;stroke-opacity:1;stroke-dasharray:none"
                 id="path5493" />
            </g>
            <text
               xml:space="preserve"
               style="font-size:80.00000763px;font-style:normal;font-weight:normal;line-height:125%;letter-spacing:0px;word-spacing:0px;fill:#000000;fill-opacity:1;stroke:none;font-family:Sans"
               x="1574.3218"
               y="-1976.1396"
               id="text3225"
               sodipodi:linespacing="125%"
               transform="scale(1,-1)"><tspan
                 sodipodi:role="line"
                 id="tspan3227"
                 x="1574.3218"
                 y="-1976.1396">$x_1$</tspan></text>
            <text
               sodipodi:linespacing="125%"
               id="text3229"
               y="-2774.1277"
               x="554.00769"
               style="font-size:80.00000763px;font-style:normal;font-weight:normal;line-height:125%;letter-spacing:0px;word-spacing:0px;fill:#000000;fill-opacity:1;stroke:none;font-family:Sans"
               xml:space="preserve"
               transform="scale(1,-1)"><tspan
                 y="-2774.1277"
                 x="554.00769"
                 id="tspan3231"
                 sodipodi:role="line">$x_2$</tspan></text>
          </g>
        </g>
      </g>
    </g>
  </g>
</svg>
