<?xml version="1.0" encoding="UTF-8" standalone="no"?>
<!-- Created with Inkscape (http://www.inkscape.org/) -->

<svg
   xmlns:dc="http://purl.org/dc/elements/1.1/"
   xmlns:cc="http://creativecommons.org/ns#"
   xmlns:rdf="http://www.w3.org/1999/02/22-rdf-syntax-ns#"
   xmlns:svg="http://www.w3.org/2000/svg"
   xmlns="http://www.w3.org/2000/svg"
   xmlns:sodipodi="http://sodipodi.sourceforge.net/DTD/sodipodi-0.dtd"
   xmlns:inkscape="http://www.inkscape.org/namespaces/inkscape"
   width="221.7632"
   height="177.16536"
   id="svg5499"
   version="1.1"
   inkscape:version="0.48.1 "
   sodipodi:docname="leontief.svg">
  <defs
     id="defs5501">
    <clipPath
       id="clipPath5879"
       clipPathUnits="userSpaceOnUse">
      <path
         id="path5881"
         d="m 919.168,5795.83 0,-3520.83 4463.332,0 0,3520.83 -4463.332,0 z"
         inkscape:connector-curvature="0" />
    </clipPath>
    <clipPath
       id="clipPath5841"
       clipPathUnits="userSpaceOnUse">
      <path
         id="path5843"
         d="m 636.668,6052.5 0,-4041.67 4841.662,0 0,4041.67 -4841.662,0 z"
         inkscape:connector-curvature="0" />
    </clipPath>
    <clipPath
       id="clipPath5777"
       clipPathUnits="userSpaceOnUse">
      <path
         id="path5779"
         d="m 919.168,5795.83 0,-3520.83 4463.332,0 0,3520.83 -4463.332,0 z"
         inkscape:connector-curvature="0" />
    </clipPath>
    <clipPath
       id="clipPath5523"
       clipPathUnits="userSpaceOnUse">
      <path
         id="path5525"
         d="m 636.668,6052.5 0,-4041.67 4841.662,0 0,4041.67 -4841.662,0 z"
         inkscape:connector-curvature="0" />
    </clipPath>
  </defs>
  <sodipodi:namedview
     id="base"
     pagecolor="#ffffff"
     bordercolor="#666666"
     borderopacity="1.0"
     inkscape:pageopacity="0.0"
     inkscape:pageshadow="2"
     inkscape:zoom="2.0150666"
     inkscape:cx="110.8816"
     inkscape:cy="88.58268"
     inkscape:document-units="px"
     inkscape:current-layer="g5517"
     showgrid="false"
     fit-margin-top="0"
     fit-margin-left="0"
     fit-margin-right="0"
     fit-margin-bottom="0"
     inkscape:window-width="1024"
     inkscape:window-height="544"
     inkscape:window-x="-4"
     inkscape:window-y="-4"
     inkscape:window-maximized="1" />
  <metadata
     id="metadata5504">
    <rdf:RDF>
      <cc:Work
         rdf:about="">
        <dc:format>image/svg+xml</dc:format>
        <dc:type
           rdf:resource="http://purl.org/dc/dcmitype/StillImage" />
        <dc:title />
      </cc:Work>
    </rdf:RDF>
  </metadata>
  <g
     inkscape:label="Layer 1"
     inkscape:groupmode="layer"
     id="layer1"
     transform="translate(334.92543,-815.3131)">
    <g
       transform="matrix(1.25,0,0,-1.25,-416.47309,1244.8917)"
       inkscape:label="ink_ext_XXXXXX"
       id="g5515">
      <g
         transform="scale(0.1,0.1)"
         id="g5517">
        <path
           id="path5531"
           style="fill:none;stroke:#ffffff;stroke-width:5;stroke-linecap:butt;stroke-linejoin:round;stroke-miterlimit:10;stroke-opacity:1;stroke-dasharray:none"
           d="m 741.1278,2109.2242 0,1314.2563 1666.1567,0 0,-1314.2563 -1666.1567,0"
           inkscape:connector-curvature="0" />
        <path
           id="path5533"
           style="fill:none;stroke:#000000;stroke-width:5;stroke-linecap:butt;stroke-linejoin:round;stroke-miterlimit:10;stroke-opacity:1;stroke-dasharray:none"
           d="m 741.1278,3423.4805 1666.1567,0"
           inkscape:connector-curvature="0" />
        <path
           id="path5535"
           style="fill:none;stroke:#000000;stroke-width:5;stroke-linecap:butt;stroke-linejoin:round;stroke-miterlimit:10;stroke-opacity:1;stroke-dasharray:none"
           d="m 741.1278,2109.2242 1666.1567,0"
           inkscape:connector-curvature="0" />
        <path
           id="path5537"
           style="fill:none;stroke:#000000;stroke-width:5;stroke-linecap:butt;stroke-linejoin:round;stroke-miterlimit:10;stroke-opacity:1;stroke-dasharray:none"
           d="m 2407.2845,2109.2242 0,1314.2563"
           inkscape:connector-curvature="0" />
        <path
           id="path5539"
           style="fill:none;stroke:#000000;stroke-width:5;stroke-linecap:butt;stroke-linejoin:round;stroke-miterlimit:10;stroke-opacity:1;stroke-dasharray:none"
           d="m 741.1278,2109.2242 0,1314.2563"
           inkscape:connector-curvature="0" />
        <path
           id="path5545"
           style="fill:none;stroke:#000000;stroke-width:5;stroke-linecap:butt;stroke-linejoin:round;stroke-miterlimit:10;stroke-opacity:1;stroke-dasharray:none"
           d="m 741.1278,2109.2242 0,16.8015"
           inkscape:connector-curvature="0" />
        <path
           id="path5547"
           style="fill:none;stroke:#000000;stroke-width:5;stroke-linecap:butt;stroke-linejoin:round;stroke-miterlimit:10;stroke-opacity:1;stroke-dasharray:none"
           d="m 741.1278,3423.4805 0,-16.8015"
           inkscape:connector-curvature="0" />
        <g
           transform="scale(1,-1)"
           style="font-size:44.8041954px;stroke-width:5;stroke-miterlimit:10"
           id="text5551">
          <path
             d="m 732.40979,-2076.9812 c 0,-3.16 0.32512,-5.7032 0.97535,-7.6296 0.65024,-1.9264 1.61647,-3.4122 2.89871,-4.4575 1.28223,-1.0452 2.89567,-1.5678 4.8403,-1.5678 1.43415,0 2.69208,0.2886 3.77379,0.8659 1.08168,0.5774 1.975,1.4099 2.67994,2.4977 0.70491,1.0878 1.25791,2.4125 1.65901,3.9743 0.40106,1.5618 0.6016,3.6674 0.60162,6.317 -2e-5,3.1357 -0.3221,5.6668 -0.96624,7.5931 -0.64417,1.9264 -1.60737,3.4153 -2.88959,4.4666 -1.28225,1.0513 -2.90176,1.577 -4.85853,1.577 -2.57664,0 -4.60026,-0.9237 -6.07088,-2.7711 -1.76232,-2.2242 -2.64348,-5.846 -2.64348,-10.8656 z m 3.37271,0 c 0,4.3876 0.5135,7.3075 1.54051,8.7599 1.027,1.4524 2.29405,2.1786 3.80114,2.1786 1.50707,0 2.77412,-0.7292 3.80114,-2.1877 1.02699,-1.4585 1.54049,-4.3754 1.54051,-8.7508 -2e-5,-4.3997 -0.51352,-7.3227 -1.54051,-8.7691 -1.02702,-1.4463 -2.30622,-2.1694 -3.8376,-2.1694 -1.5071,0 -2.71033,0.6381 -3.60971,1.9142 -1.13032,1.6286 -1.69548,4.6367 -1.69548,9.0243 z"
             style="font-size:37.33683014px;font-variant:normal;font-weight:normal;writing-mode:lr-tb;fill:#000000;fill-opacity:1;fill-rule:nonzero;stroke:none;font-family:Helvetica;-inkscape-font-specification:Helvetica"
             id="path3196" />
        </g>
        <path
           id="path5555"
           style="fill:none;stroke:#000000;stroke-width:5;stroke-linecap:butt;stroke-linejoin:round;stroke-miterlimit:10;stroke-opacity:1;stroke-dasharray:none"
           d="m 907.89723,2109.2242 0,16.8015"
           inkscape:connector-curvature="0" />
        <path
           id="path5557"
           style="fill:none;stroke:#000000;stroke-width:5;stroke-linecap:butt;stroke-linejoin:round;stroke-miterlimit:10;stroke-opacity:1;stroke-dasharray:none"
           d="m 907.89723,3423.4805 0,-16.8015"
           inkscape:connector-curvature="0" />
        <g
           transform="scale(1,-1)"
           style="font-size:44.8041954px;stroke-width:5;stroke-miterlimit:10"
           id="text5561">
          <path
             d="m 916.42561,-2066.9542 0,3.1539 -17.66572,0 c -0.0243,-0.79 0.10331,-1.5496 0.38285,-2.2789 0.44969,-1.2032 1.16981,-2.3882 2.16036,-3.555 0.99054,-1.1667 2.42166,-2.5158 4.29337,-4.0472 2.90477,-2.3822 4.86763,-4.2691 5.88857,-5.6607 1.02092,-1.3916 1.53138,-2.7073 1.5314,-3.947 -2e-5,-1.3004 -0.46491,-2.3973 -1.39467,-3.2907 -0.92978,-0.8933 -2.14214,-1.3399 -3.63706,-1.3399 -1.58001,0 -2.84402,0.474 -3.79202,1.422 -0.94801,0.948 -1.42809,2.2606 -1.44024,3.9378 l -3.37271,-0.3463 c 0.23092,-2.5159 1.09993,-4.4332 2.60702,-5.7519 1.50708,-1.3187 3.5307,-1.978 6.07088,-1.978 2.56446,0 4.59416,0.711 6.08911,2.133 1.49491,1.422 2.24238,3.1843 2.2424,5.2869 -2e-5,1.0696 -0.21879,2.1209 -0.65631,3.154 -0.43756,1.0331 -1.16376,2.1208 -2.17859,3.2633 -1.01487,1.1425 -2.70122,2.7103 -5.05907,4.7036 -1.96894,1.6529 -3.23295,2.7741 -3.79202,3.3636 -0.55909,0.5894 -1.02094,1.1819 -1.38555,1.7775 z"
             style="font-size:37.33683014px;font-variant:normal;font-weight:normal;writing-mode:lr-tb;fill:#000000;fill-opacity:1;fill-rule:nonzero;stroke:none;font-family:Helvetica;-inkscape-font-specification:Helvetica"
             id="path3193" />
        </g>
        <path
           id="path5565"
           style="fill:none;stroke:#000000;stroke-width:5;stroke-linecap:butt;stroke-linejoin:round;stroke-miterlimit:10;stroke-opacity:1;stroke-dasharray:none"
           d="m 1074.3597,2109.2242 0,16.8015"
           inkscape:connector-curvature="0" />
        <path
           id="path5567"
           style="fill:none;stroke:#000000;stroke-width:5;stroke-linecap:butt;stroke-linejoin:round;stroke-miterlimit:10;stroke-opacity:1;stroke-dasharray:none"
           d="m 1074.3597,3423.4805 0,-16.8015"
           inkscape:connector-curvature="0" />
        <g
           transform="scale(1,-1)"
           style="font-size:44.8041954px;stroke-width:5;stroke-miterlimit:10"
           id="text5571">
          <path
             d="m 1076.1609,-2063.8003 0,-6.399 -11.5949,0 0,-3.0081 12.1965,-17.3194 2.6799,0 0,17.3194 3.6098,0 0,3.0081 -3.6098,0 0,6.399 z m 0,-9.4071 0,-12.0506 -8.368,12.0506 z"
             style="font-size:37.33683014px;font-variant:normal;font-weight:normal;writing-mode:lr-tb;fill:#000000;fill-opacity:1;fill-rule:nonzero;stroke:none;font-family:Helvetica;-inkscape-font-specification:Helvetica"
             id="path3190" />
        </g>
        <path
           id="path5575"
           style="fill:none;stroke:#000000;stroke-width:5;stroke-linecap:butt;stroke-linejoin:round;stroke-miterlimit:10;stroke-opacity:1;stroke-dasharray:none"
           d="m 1241.1284,2109.2242 0,16.8015"
           inkscape:connector-curvature="0" />
        <path
           id="path5577"
           style="fill:none;stroke:#000000;stroke-width:5;stroke-linecap:butt;stroke-linejoin:round;stroke-miterlimit:10;stroke-opacity:1;stroke-dasharray:none"
           d="m 1241.1284,3423.4805 0,-16.8015"
           inkscape:connector-curvature="0" />
        <g
           transform="scale(1,-1)"
           style="font-size:44.8041954px;stroke-width:5;stroke-miterlimit:10"
           id="text5581">
          <path
             d="m 1249.4381,-2083.9819 -3.2633,0.2553 c -0.2917,-1.2883 -0.705,-2.2242 -1.2397,-2.8076 -0.8873,-0.9358 -1.9811,-1.4037 -3.2816,-1.4038 -1.0452,1e-4 -1.9628,0.2917 -2.7528,0.8751 -1.0331,0.7536 -1.8474,1.8535 -2.443,3.2998 -0.5955,1.4463 -0.9055,3.5064 -0.9298,6.1803 0.79,-1.2033 1.7563,-2.0966 2.8988,-2.68 1.1424,-0.5833 2.3396,-0.875 3.5914,-0.8751 2.1877,1e-4 4.0503,0.8053 5.5878,2.4156 1.5374,1.6104 2.3062,3.6918 2.3062,6.2441 0,1.6773 -0.3616,3.236 -1.0847,4.6762 -0.7232,1.4403 -1.7168,2.5432 -2.9808,3.3089 -1.264,0.7657 -2.6982,1.1486 -4.3025,1.1486 -2.7346,0 -4.9648,-1.0058 -6.6907,-3.0172 -1.7259,-2.0115 -2.5888,-5.3265 -2.5888,-9.945 0,-5.1654 0.9541,-8.9209 2.8623,-11.2667 1.665,-2.0418 3.9074,-3.0627 6.7272,-3.0627 2.1026,0 3.8254,0.5895 5.1684,1.7684 1.343,1.1789 2.1482,2.8075 2.4156,4.8858 z m -13.3997,11.5219 c 0,1.1304 0.24,2.2121 0.7201,3.2451 0.4801,1.0331 1.1516,1.8201 2.0145,2.3609 0.863,0.5409 1.7684,0.8113 2.7164,0.8113 1.3856,0 2.5767,-0.5591 3.5733,-1.6772 0.9966,-1.1182 1.4949,-2.6374 1.4949,-4.5577 0,-1.8474 -0.4922,-3.3029 -1.4767,-4.3663 -0.9845,-1.0635 -2.2242,-1.5952 -3.7191,-1.5952 -1.4828,0 -2.7407,0.5317 -3.7738,1.5952 -1.0331,1.0634 -1.5496,2.4581 -1.5496,4.1839 z"
             style="font-size:37.33683014px;font-variant:normal;font-weight:normal;writing-mode:lr-tb;fill:#000000;fill-opacity:1;fill-rule:nonzero;stroke:none;font-family:Helvetica;-inkscape-font-specification:Helvetica"
             id="path3187" />
        </g>
        <path
           id="path5585"
           style="fill:none;stroke:#000000;stroke-width:5;stroke-linecap:butt;stroke-linejoin:round;stroke-miterlimit:10;stroke-opacity:1;stroke-dasharray:none"
           d="m 1407.5909,2109.2242 0,16.8015"
           inkscape:connector-curvature="0" />
        <path
           id="path5587"
           style="fill:none;stroke:#000000;stroke-width:5;stroke-linecap:butt;stroke-linejoin:round;stroke-miterlimit:10;stroke-opacity:1;stroke-dasharray:none"
           d="m 1407.5909,3423.4805 0,-16.8015"
           inkscape:connector-curvature="0" />
        <g
           transform="scale(1,-1)"
           style="font-size:44.8041954px;stroke-width:5;stroke-miterlimit:10"
           id="text5591">
          <path
             d="m 1403.9228,-2078.2938 c -1.3612,-0.4983 -2.37,-1.2093 -3.0263,-2.1331 -0.6563,-0.9236 -0.9845,-2.0296 -0.9845,-3.318 0,-1.9446 0.6989,-3.5793 2.0966,-4.9041 1.3977,-1.3247 3.2572,-1.9871 5.5786,-1.9871 2.3336,0 4.2113,0.6776 5.6334,2.0327 1.422,1.3552 2.133,3.0051 2.133,4.9497 0,1.2397 -0.3252,2.3184 -0.9754,3.236 -0.6502,0.9176 -1.6377,1.6256 -2.9625,2.1239 1.6408,0.5347 2.8896,1.3977 3.7465,2.5887 0.8568,1.1911 1.2852,2.6131 1.2852,4.2661 0,2.2849 -0.8082,4.2052 -2.4247,5.7609 -1.6165,1.5557 -3.7434,2.3336 -6.3808,2.3336 -2.6374,0 -4.7643,-0.7809 -6.3808,-2.3427 -1.6165,-1.5618 -2.4247,-3.5094 -2.4247,-5.843 0,-1.738 0.4406,-3.1934 1.3217,-4.3663 0.8812,-1.1728 2.1361,-1.9719 3.7647,-2.3973 z m -0.6563,-5.5605 c 0,1.2641 0.4072,2.2972 1.2215,3.0993 0.8143,0.8022 1.8717,1.2032 3.1721,1.2032 1.264,0 2.3002,-0.398 3.1084,-1.1941 0.8082,-0.7961 1.2124,-1.7714 1.2124,-2.926 0,-1.2033 -0.4163,-2.2151 -1.2488,-3.0355 -0.8326,-0.8204 -1.8687,-1.2305 -3.1084,-1.2306 -1.2519,1e-4 -2.291,0.4011 -3.1175,1.2033 -0.8265,0.8021 -1.2397,1.7623 -1.2397,2.8804 z m -1.0574,12.3423 c 0,0.9359 0.2218,1.8414 0.6654,2.7164 0.4437,0.8751 1.103,1.5527 1.9781,2.0328 0.8751,0.4801 1.817,0.7201 2.8258,0.7201 1.5678,0 2.8622,-0.5044 3.8832,-1.5132 1.0209,-1.0087 1.5313,-2.291 1.5313,-3.8467 0,-1.58 -0.5256,-2.8865 -1.5769,-3.9196 -1.0513,-1.0331 -2.367,-1.5496 -3.947,-1.5496 -1.5436,0 -2.8228,0.5104 -3.8376,1.5314 -1.0149,1.0209 -1.5223,2.2971 -1.5223,3.8284 z"
             style="font-size:37.33683014px;font-variant:normal;font-weight:normal;writing-mode:lr-tb;fill:#000000;fill-opacity:1;fill-rule:nonzero;stroke:none;font-family:Helvetica;-inkscape-font-specification:Helvetica"
             id="path3184" />
        </g>
        <path
           id="path5595"
           style="fill:none;stroke:#000000;stroke-width:5;stroke-linecap:butt;stroke-linejoin:round;stroke-miterlimit:10;stroke-opacity:1;stroke-dasharray:none"
           d="m 1574.3596,2109.2242 0,16.8015"
           inkscape:connector-curvature="0" />
        <path
           id="path5597"
           style="fill:none;stroke:#000000;stroke-width:5;stroke-linecap:butt;stroke-linejoin:round;stroke-miterlimit:10;stroke-opacity:1;stroke-dasharray:none"
           d="m 1574.3596,3423.4805 0,-16.8015"
           inkscape:connector-curvature="0" />
        <g
           transform="scale(1,-1)"
           style="font-size:44.8041954px;stroke-width:5;stroke-miterlimit:10"
           id="text5601">
          <path
             d="m 1567.7345,-2063.8003 -3.2816,0 0,-20.9108 c -0.79,0.7536 -1.8261,1.5071 -3.1083,2.2606 -1.2823,0.7536 -2.4339,1.3187 -3.4548,1.6955 l 0,-3.1722 c 1.8353,-0.8629 3.4396,-1.9081 4.813,-3.1357 1.3734,-1.2275 2.3457,-2.4186 2.9169,-3.5732 l 2.1148,0 z"
             style="font-size:37.33683014px;font-variant:normal;font-weight:normal;writing-mode:lr-tb;fill:#000000;fill-opacity:1;fill-rule:nonzero;stroke:none;font-family:Helvetica;-inkscape-font-specification:Helvetica"
             id="path3179" />
          <path
             d="m 1576.1332,-2076.9812 c 0,-3.16 0.3252,-5.7032 0.9754,-7.6296 0.6502,-1.9264 1.6165,-3.4122 2.8987,-4.4575 1.2822,-1.0452 2.8957,-1.5678 4.8403,-1.5678 1.4342,0 2.6921,0.2886 3.7738,0.8659 1.0817,0.5774 1.975,1.4099 2.6799,2.4977 0.7049,1.0878 1.2579,2.4125 1.659,3.9743 0.4011,1.5618 0.6016,3.6674 0.6017,6.317 -10e-5,3.1357 -0.3221,5.6668 -0.9663,7.5931 -0.6442,1.9264 -1.6074,3.4153 -2.8896,4.4666 -1.2822,1.0513 -2.9017,1.577 -4.8585,1.577 -2.5766,0 -4.6003,-0.9237 -6.0709,-2.7711 -1.7623,-2.2242 -2.6435,-5.846 -2.6435,-10.8656 z m 3.3728,0 c -10e-5,4.3876 0.5135,7.3075 1.5405,8.7599 1.027,1.4524 2.294,2.1786 3.8011,2.1786 1.5071,0 2.7741,-0.7292 3.8011,-2.1877 1.027,-1.4585 1.5405,-4.3754 1.5405,-8.7508 0,-4.3997 -0.5135,-7.3227 -1.5405,-8.7691 -1.027,-1.4463 -2.3062,-2.1694 -3.8376,-2.1694 -1.5071,0 -2.7103,0.6381 -3.6097,1.9142 -1.1303,1.6286 -1.6955,4.6367 -1.6954,9.0243 z"
             style="font-size:37.33683014px;font-variant:normal;font-weight:normal;writing-mode:lr-tb;fill:#000000;fill-opacity:1;fill-rule:nonzero;stroke:none;font-family:Helvetica;-inkscape-font-specification:Helvetica"
             id="path3181" />
        </g>
        <path
           id="path5605"
           style="fill:none;stroke:#000000;stroke-width:5;stroke-linecap:butt;stroke-linejoin:round;stroke-miterlimit:10;stroke-opacity:1;stroke-dasharray:none"
           d="m 1740.8221,2109.2242 0,16.8015"
           inkscape:connector-curvature="0" />
        <path
           id="path5607"
           style="fill:none;stroke:#000000;stroke-width:5;stroke-linecap:butt;stroke-linejoin:round;stroke-miterlimit:10;stroke-opacity:1;stroke-dasharray:none"
           d="m 1740.8221,3423.4805 0,-16.8015"
           inkscape:connector-curvature="0" />
        <g
           transform="scale(1,-1)"
           style="font-size:44.8041954px;stroke-width:5;stroke-miterlimit:10"
           id="text5611">
          <path
             d="m 1734.197,-2063.8003 -3.2815,0 0,-20.9108 c -0.79,0.7536 -1.8262,1.5071 -3.1084,2.2606 -1.2822,0.7536 -2.4338,1.3187 -3.4547,1.6955 l 0,-3.1722 c 1.8352,-0.8629 3.4395,-1.9081 4.8129,-3.1357 1.3734,-1.2275 2.3457,-2.4186 2.9169,-3.5732 l 2.1148,0 z"
             style="font-size:37.33683014px;font-variant:normal;font-weight:normal;writing-mode:lr-tb;fill:#000000;fill-opacity:1;fill-rule:nonzero;stroke:none;font-family:Helvetica;-inkscape-font-specification:Helvetica"
             id="path3174" />
          <path
             d="m 1759.8422,-2066.9542 0,3.1539 -17.6657,0 c -0.024,-0.79 0.1033,-1.5496 0.3828,-2.2789 0.4497,-1.2032 1.1698,-2.3882 2.1604,-3.555 0.9905,-1.1667 2.4216,-2.5158 4.2933,-4.0472 2.9048,-2.3822 4.8677,-4.2691 5.8886,-5.6607 1.0209,-1.3916 1.5314,-2.7073 1.5314,-3.947 0,-1.3004 -0.4649,-2.3973 -1.3947,-3.2907 -0.9297,-0.8933 -2.1421,-1.3399 -3.637,-1.3399 -1.58,0 -2.844,0.474 -3.792,1.422 -0.9481,0.948 -1.4281,2.2606 -1.4403,3.9378 l -3.3727,-0.3463 c 0.2309,-2.5159 1.0999,-4.4332 2.607,-5.7519 1.5071,-1.3187 3.5307,-1.978 6.0709,-1.978 2.5645,0 4.5942,0.711 6.0891,2.133 1.4949,1.422 2.2424,3.1843 2.2424,5.2869 0,1.0696 -0.2188,2.1209 -0.6563,3.154 -0.4376,1.0331 -1.1638,2.1208 -2.1786,3.2633 -1.0149,1.1425 -2.7012,2.7103 -5.0591,4.7036 -1.9689,1.6529 -3.2329,2.7741 -3.792,3.3636 -0.5591,0.5894 -1.0209,1.1819 -1.3855,1.7775 z"
             style="font-size:37.33683014px;font-variant:normal;font-weight:normal;writing-mode:lr-tb;fill:#000000;fill-opacity:1;fill-rule:nonzero;stroke:none;font-family:Helvetica;-inkscape-font-specification:Helvetica"
             id="path3176" />
        </g>
        <path
           id="path5615"
           style="fill:none;stroke:#000000;stroke-width:5;stroke-linecap:butt;stroke-linejoin:round;stroke-miterlimit:10;stroke-opacity:1;stroke-dasharray:none"
           d="m 1907.5908,2109.2242 0,16.8015"
           inkscape:connector-curvature="0" />
        <path
           id="path5617"
           style="fill:none;stroke:#000000;stroke-width:5;stroke-linecap:butt;stroke-linejoin:round;stroke-miterlimit:10;stroke-opacity:1;stroke-dasharray:none"
           d="m 1907.5908,3423.4805 0,-16.8015"
           inkscape:connector-curvature="0" />
        <g
           transform="scale(1,-1)"
           style="font-size:44.8041954px;stroke-width:5;stroke-miterlimit:10"
           id="text5621">
          <path
             d="m 1900.9657,-2063.8003 -3.2816,0 0,-20.9108 c -0.79,0.7536 -1.8261,1.5071 -3.1083,2.2606 -1.2823,0.7536 -2.4338,1.3187 -3.4548,1.6955 l 0,-3.1722 c 1.8353,-0.8629 3.4396,-1.9081 4.813,-3.1357 1.3734,-1.2275 2.3457,-2.4186 2.9169,-3.5732 l 2.1148,0 z"
             style="font-size:37.33683014px;font-variant:normal;font-weight:normal;writing-mode:lr-tb;fill:#000000;fill-opacity:1;fill-rule:nonzero;stroke:none;font-family:Helvetica;-inkscape-font-specification:Helvetica"
             id="path3169" />
          <path
             d="m 1919.8837,-2063.8003 0,-6.399 -11.5949,0 0,-3.0081 12.1965,-17.3194 2.6799,0 0,17.3194 3.6097,0 0,3.0081 -3.6097,0 0,6.399 z m 0,-9.4071 0,-12.0506 -8.368,12.0506 z"
             style="font-size:37.33683014px;font-variant:normal;font-weight:normal;writing-mode:lr-tb;fill:#000000;fill-opacity:1;fill-rule:nonzero;stroke:none;font-family:Helvetica;-inkscape-font-specification:Helvetica"
             id="path3171" />
        </g>
        <path
           id="path5625"
           style="fill:none;stroke:#000000;stroke-width:5;stroke-linecap:butt;stroke-linejoin:round;stroke-miterlimit:10;stroke-opacity:1;stroke-dasharray:none"
           d="m 2074.0533,2109.2242 0,16.8015"
           inkscape:connector-curvature="0" />
        <path
           id="path5627"
           style="fill:none;stroke:#000000;stroke-width:5;stroke-linecap:butt;stroke-linejoin:round;stroke-miterlimit:10;stroke-opacity:1;stroke-dasharray:none"
           d="m 2074.0533,3423.4805 0,-16.8015"
           inkscape:connector-curvature="0" />
        <g
           transform="scale(1,-1)"
           style="font-size:44.8041954px;stroke-width:5;stroke-miterlimit:10"
           id="text5631">
          <path
             d="m 2067.4282,-2063.8003 -3.2815,0 0,-20.9108 c -0.79,0.7536 -1.8262,1.5071 -3.1084,2.2606 -1.2822,0.7536 -2.4338,1.3187 -3.4547,1.6955 l 0,-3.1722 c 1.8352,-0.8629 3.4395,-1.9081 4.8129,-3.1357 1.3734,-1.2275 2.3457,-2.4186 2.9169,-3.5732 l 2.1148,0 z"
             style="font-size:37.33683014px;font-variant:normal;font-weight:normal;writing-mode:lr-tb;fill:#000000;fill-opacity:1;fill-rule:nonzero;stroke:none;font-family:Helvetica;-inkscape-font-specification:Helvetica"
             id="path3164" />
          <path
             d="m 2092.8546,-2083.9819 -3.2633,0.2553 c -0.2917,-1.2883 -0.705,-2.2242 -1.2397,-2.8076 -0.8873,-0.9358 -1.9811,-1.4037 -3.2816,-1.4038 -1.0452,1e-4 -1.9628,0.2917 -2.7528,0.8751 -1.0331,0.7536 -1.8474,1.8535 -2.443,3.2998 -0.5955,1.4463 -0.9054,3.5064 -0.9298,6.1803 0.79,-1.2033 1.7563,-2.0966 2.8988,-2.68 1.1424,-0.5833 2.3396,-0.875 3.5914,-0.8751 2.1877,1e-4 4.0503,0.8053 5.5878,2.4156 1.5375,1.6104 2.3062,3.6918 2.3062,6.2441 0,1.6773 -0.3616,3.236 -1.0847,4.6762 -0.7232,1.4403 -1.7168,2.5432 -2.9808,3.3089 -1.264,0.7657 -2.6982,1.1486 -4.3025,1.1486 -2.7346,0 -4.9648,-1.0058 -6.6907,-3.0172 -1.7259,-2.0115 -2.5888,-5.3265 -2.5888,-9.945 0,-5.1654 0.9541,-8.9209 2.8623,-11.2667 1.665,-2.0418 3.9074,-3.0627 6.7272,-3.0627 2.1026,0 3.8254,0.5895 5.1684,1.7684 1.343,1.1789 2.1482,2.8075 2.4156,4.8858 z m -13.3997,11.5219 c 0,1.1304 0.24,2.2121 0.7201,3.2451 0.4801,1.0331 1.1516,1.8201 2.0145,2.3609 0.863,0.5409 1.7684,0.8113 2.7164,0.8113 1.3856,0 2.5767,-0.5591 3.5733,-1.6772 0.9966,-1.1182 1.4949,-2.6374 1.4949,-4.5577 0,-1.8474 -0.4922,-3.3029 -1.4767,-4.3663 -0.9845,-1.0635 -2.2242,-1.5952 -3.7191,-1.5952 -1.4828,0 -2.7407,0.5317 -3.7738,1.5952 -1.0331,1.0634 -1.5496,2.4581 -1.5496,4.1839 z"
             style="font-size:37.33683014px;font-variant:normal;font-weight:normal;writing-mode:lr-tb;fill:#000000;fill-opacity:1;fill-rule:nonzero;stroke:none;font-family:Helvetica;-inkscape-font-specification:Helvetica"
             id="path3166" />
        </g>
        <path
           id="path5635"
           style="fill:none;stroke:#000000;stroke-width:5;stroke-linecap:butt;stroke-linejoin:round;stroke-miterlimit:10;stroke-opacity:1;stroke-dasharray:none"
           d="m 2240.822,2109.2242 0,16.8015"
           inkscape:connector-curvature="0" />
        <path
           id="path5637"
           style="fill:none;stroke:#000000;stroke-width:5;stroke-linecap:butt;stroke-linejoin:round;stroke-miterlimit:10;stroke-opacity:1;stroke-dasharray:none"
           d="m 2240.822,3423.4805 0,-16.8015"
           inkscape:connector-curvature="0" />
        <g
           transform="scale(1,-1)"
           style="font-size:44.8041954px;stroke-width:5;stroke-miterlimit:10"
           id="text5641">
          <path
             d="m 2234.197,-2063.8003 -3.2815,0 0,-20.9108 c -0.79,0.7536 -1.8262,1.5071 -3.1084,2.2606 -1.2822,0.7536 -2.4338,1.3187 -3.4547,1.6955 l 0,-3.1722 c 1.8352,-0.8629 3.4395,-1.9081 4.8129,-3.1357 1.3734,-1.2275 2.3457,-2.4186 2.9169,-3.5732 l 2.1148,0 z"
             style="font-size:37.33683014px;font-variant:normal;font-weight:normal;writing-mode:lr-tb;fill:#000000;fill-opacity:1;fill-rule:nonzero;stroke:none;font-family:Helvetica;-inkscape-font-specification:Helvetica"
             id="path3159" />
          <path
             d="m 2247.6457,-2078.2938 c -1.3612,-0.4983 -2.37,-1.2093 -3.0263,-2.1331 -0.6563,-0.9236 -0.9845,-2.0296 -0.9845,-3.318 0,-1.9446 0.6989,-3.5793 2.0966,-4.9041 1.3977,-1.3247 3.2572,-1.9871 5.5786,-1.9871 2.3336,0 4.2113,0.6776 5.6334,2.0327 1.422,1.3552 2.133,3.0051 2.133,4.9497 0,1.2397 -0.3252,2.3184 -0.9754,3.236 -0.6502,0.9176 -1.6377,1.6256 -2.9625,2.1239 1.6408,0.5347 2.8896,1.3977 3.7465,2.5887 0.8568,1.1911 1.2852,2.6131 1.2852,4.2661 0,2.2849 -0.8082,4.2052 -2.4247,5.7609 -1.6165,1.5557 -3.7434,2.3336 -6.3808,2.3336 -2.6374,0 -4.7643,-0.7809 -6.3808,-2.3427 -1.6165,-1.5618 -2.4247,-3.5094 -2.4247,-5.843 0,-1.738 0.4406,-3.1934 1.3217,-4.3663 0.8812,-1.1728 2.1361,-1.9719 3.7647,-2.3973 z m -0.6563,-5.5605 c 0,1.2641 0.4072,2.2972 1.2215,3.0993 0.8143,0.8022 1.8717,1.2032 3.1721,1.2032 1.264,0 2.3002,-0.398 3.1084,-1.1941 0.8082,-0.7961 1.2124,-1.7714 1.2124,-2.926 0,-1.2033 -0.4163,-2.2151 -1.2488,-3.0355 -0.8326,-0.8204 -1.8687,-1.2305 -3.1084,-1.2306 -1.2519,1e-4 -2.291,0.4011 -3.1175,1.2033 -0.8265,0.8021 -1.2397,1.7623 -1.2397,2.8804 z m -1.0574,12.3423 c 0,0.9359 0.2218,1.8414 0.6654,2.7164 0.4437,0.8751 1.103,1.5527 1.9781,2.0328 0.8751,0.4801 1.817,0.7201 2.8258,0.7201 1.5678,0 2.8622,-0.5044 3.8832,-1.5132 1.0209,-1.0087 1.5313,-2.291 1.5313,-3.8467 0,-1.58 -0.5256,-2.8865 -1.5769,-3.9196 -1.0513,-1.0331 -2.367,-1.5496 -3.947,-1.5496 -1.5436,0 -2.8228,0.5104 -3.8376,1.5314 -1.0149,1.0209 -1.5223,2.2971 -1.5223,3.8284 z"
             style="font-size:37.33683014px;font-variant:normal;font-weight:normal;writing-mode:lr-tb;fill:#000000;fill-opacity:1;fill-rule:nonzero;stroke:none;font-family:Helvetica;-inkscape-font-specification:Helvetica"
             id="path3161" />
        </g>
        <path
           id="path5645"
           style="fill:none;stroke:#000000;stroke-width:5;stroke-linecap:butt;stroke-linejoin:round;stroke-miterlimit:10;stroke-opacity:1;stroke-dasharray:none"
           d="m 2407.2845,2109.2242 0,16.8015"
           inkscape:connector-curvature="0" />
        <path
           id="path5647"
           style="fill:none;stroke:#000000;stroke-width:5;stroke-linecap:butt;stroke-linejoin:round;stroke-miterlimit:10;stroke-opacity:1;stroke-dasharray:none"
           d="m 2407.2845,3423.4805 0,-16.8015"
           inkscape:connector-curvature="0" />
        <g
           transform="scale(1,-1)"
           style="font-size:44.8041954px;stroke-width:5;stroke-miterlimit:10"
           id="text5651">
          <path
             d="m 2405.5453,-2066.9542 0,3.1539 -17.6657,0 c -0.024,-0.79 0.1033,-1.5496 0.3828,-2.2789 0.4497,-1.2032 1.1698,-2.3882 2.1604,-3.555 0.9905,-1.1667 2.4217,-2.5158 4.2934,-4.0472 2.9047,-2.3822 4.8676,-4.2691 5.8885,-5.6607 1.0209,-1.3916 1.5314,-2.7073 1.5314,-3.947 0,-1.3004 -0.4649,-2.3973 -1.3946,-3.2907 -0.9298,-0.8933 -2.1422,-1.3399 -3.6371,-1.3399 -1.58,0 -2.844,0.474 -3.792,1.422 -0.948,0.948 -1.4281,2.2606 -1.4403,3.9378 l -3.3727,-0.3463 c 0.231,-2.5159 1.1,-4.4332 2.607,-5.7519 1.5071,-1.3187 3.5308,-1.978 6.0709,-1.978 2.5645,0 4.5942,0.711 6.0891,2.133 1.495,1.422 2.2424,3.1843 2.2424,5.2869 0,1.0696 -0.2188,2.1209 -0.6563,3.154 -0.4375,1.0331 -1.1637,2.1208 -2.1786,3.2633 -1.0148,1.1425 -2.7012,2.7103 -5.059,4.7036 -1.969,1.6529 -3.233,2.7741 -3.7921,3.3636 -0.559,0.5894 -1.0209,1.1819 -1.3855,1.7775 z"
             style="font-size:37.33683014px;font-variant:normal;font-weight:normal;writing-mode:lr-tb;fill:#000000;fill-opacity:1;fill-rule:nonzero;stroke:none;font-family:Helvetica;-inkscape-font-specification:Helvetica"
             id="path3154" />
          <path
             d="m 2409.0582,-2076.9812 c 0,-3.16 0.3251,-5.7032 0.9753,-7.6296 0.6503,-1.9264 1.6165,-3.4122 2.8987,-4.4575 1.2823,-1.0452 2.8957,-1.5678 4.8403,-1.5678 1.4342,0 2.6921,0.2886 3.7738,0.8659 1.0817,0.5774 1.975,1.4099 2.68,2.4977 0.7049,1.0878 1.2579,2.4125 1.659,3.9743 0.401,1.5618 0.6016,3.6674 0.6016,6.317 0,3.1357 -0.3221,5.6668 -0.9663,7.5931 -0.6441,1.9264 -1.6073,3.4153 -2.8895,4.4666 -1.2823,1.0513 -2.9018,1.577 -4.8586,1.577 -2.5766,0 -4.6002,-0.9237 -6.0709,-2.7711 -1.7623,-2.2242 -2.6434,-5.846 -2.6434,-10.8656 z m 3.3727,0 c 0,4.3876 0.5135,7.3075 1.5405,8.7599 1.027,1.4524 2.294,2.1786 3.8011,2.1786 1.5071,0 2.7741,-0.7292 3.8012,-2.1877 1.027,-1.4585 1.5405,-4.3754 1.5405,-8.7508 0,-4.3997 -0.5135,-7.3227 -1.5405,-8.7691 -1.0271,-1.4463 -2.3063,-2.1694 -3.8376,-2.1694 -1.5071,0 -2.7104,0.6381 -3.6097,1.9142 -1.1304,1.6286 -1.6955,4.6367 -1.6955,9.0243 z"
             style="font-size:37.33683014px;font-variant:normal;font-weight:normal;writing-mode:lr-tb;fill:#000000;fill-opacity:1;fill-rule:nonzero;stroke:none;font-family:Helvetica;-inkscape-font-specification:Helvetica"
             id="path3156" />
        </g>
        <path
           id="path5655"
           style="fill:none;stroke:#000000;stroke-width:5;stroke-linecap:butt;stroke-linejoin:round;stroke-miterlimit:10;stroke-opacity:1;stroke-dasharray:none"
           d="m 741.1278,2109.2242 16.80158,0"
           inkscape:connector-curvature="0" />
        <path
           id="path5657"
           style="fill:none;stroke:#000000;stroke-width:5;stroke-linecap:butt;stroke-linejoin:round;stroke-miterlimit:10;stroke-opacity:1;stroke-dasharray:none"
           d="m 2407.2845,2109.2242 -16.8015,0"
           inkscape:connector-curvature="0" />
        <g
           transform="scale(1,-1)"
           style="font-size:44.8041954px;stroke-width:5;stroke-miterlimit:10"
           id="text5661">
          <path
             d="m 711.25177,-2108.7175 c 0,-3.16 0.32512,-5.7032 0.97535,-7.6297 0.65024,-1.9263 1.61647,-3.4122 2.89871,-4.4574 1.28223,-1.0452 2.89567,-1.5678 4.8403,-1.5679 1.43415,10e-5 2.69208,0.2887 3.77379,0.866 1.08168,0.5773 1.975,1.4099 2.67994,2.4976 0.70491,1.0878 1.25791,2.4126 1.65901,3.9744 0.40106,1.5618 0.6016,3.6674 0.60162,6.317 -2e-5,3.1357 -0.3221,5.6667 -0.96624,7.5931 -0.64417,1.9264 -1.60737,3.4153 -2.88959,4.4666 -1.28225,1.0513 -2.90176,1.577 -4.85853,1.577 -2.57664,0 -4.60026,-0.9237 -6.07088,-2.7711 -1.76232,-2.2242 -2.64348,-5.8461 -2.64348,-10.8656 z m 3.37271,0 c 0,4.3875 0.5135,7.3075 1.54051,8.7599 1.027,1.4524 2.29405,2.1786 3.80114,2.1786 1.50707,0 2.77412,-0.7293 3.80114,-2.1877 1.02699,-1.4585 1.54049,-4.3754 1.54051,-8.7508 -2e-5,-4.3997 -0.51352,-7.3228 -1.54051,-8.7691 -1.02702,-1.4463 -2.30622,-2.1694 -3.8376,-2.1695 -1.5071,1e-4 -2.71033,0.6381 -3.60971,1.9143 -1.13032,1.6286 -1.69548,4.6367 -1.69548,9.0243 z"
             style="font-size:37.33683014px;font-variant:normal;font-weight:normal;writing-mode:lr-tb;fill:#000000;fill-opacity:1;fill-rule:nonzero;stroke:none;font-family:Helvetica;-inkscape-font-specification:Helvetica"
             id="path3148" />
        </g>
        <path
           id="path5665"
           style="fill:none;stroke:#000000;stroke-width:5;stroke-linecap:butt;stroke-linejoin:round;stroke-miterlimit:10;stroke-opacity:1;stroke-dasharray:none"
           d="m 741.1278,2240.5266 16.80158,0"
           inkscape:connector-curvature="0" />
        <path
           id="path5667"
           style="fill:none;stroke:#000000;stroke-width:5;stroke-linecap:butt;stroke-linejoin:round;stroke-miterlimit:10;stroke-opacity:1;stroke-dasharray:none"
           d="m 2407.2845,2240.5266 -16.8015,0"
           inkscape:connector-curvature="0" />
        <g
           transform="scale(1,-1)"
           style="font-size:44.8041954px;stroke-width:5;stroke-miterlimit:10"
           id="text5671">
          <path
             d="m 728.49818,-2229.9891 0,3.1539 -17.66572,0 c -0.0243,-0.79 0.10331,-1.5496 0.38285,-2.2789 0.44969,-1.2032 1.16981,-2.3882 2.16036,-3.555 0.99054,-1.1668 2.42166,-2.5158 4.29337,-4.0472 2.90478,-2.3822 4.86763,-4.2691 5.88857,-5.6607 1.02092,-1.3916 1.53138,-2.7073 1.5314,-3.947 -2e-5,-1.3005 -0.46491,-2.3973 -1.39467,-3.2907 -0.92978,-0.8933 -2.14214,-1.3399 -3.63706,-1.34 -1.58001,10e-5 -2.84402,0.4741 -3.79202,1.4221 -0.94801,0.948 -1.42809,2.2606 -1.44024,3.9378 l -3.37271,-0.3464 c 0.23092,-2.5158 1.09993,-4.4331 2.60702,-5.7518 1.50708,-1.3187 3.5307,-1.978 6.07088,-1.9781 2.56446,1e-4 4.59416,0.7111 6.08911,2.1331 1.49491,1.422 2.24238,3.1843 2.2424,5.2869 -2e-5,1.0696 -0.21879,2.1209 -0.65631,3.154 -0.43756,1.0331 -1.16376,2.1208 -2.17859,3.2633 -1.01487,1.1425 -2.70122,2.7103 -5.05907,4.7035 -1.96894,1.653 -3.23295,2.7742 -3.79202,3.3636 -0.55909,0.5895 -1.02094,1.182 -1.38555,1.7776 z"
             style="font-size:37.33683014px;font-variant:normal;font-weight:normal;writing-mode:lr-tb;fill:#000000;fill-opacity:1;fill-rule:nonzero;stroke:none;font-family:Helvetica;-inkscape-font-specification:Helvetica"
             id="path3145" />
        </g>
        <path
           id="path5675"
           style="fill:none;stroke:#000000;stroke-width:5;stroke-linecap:butt;stroke-linejoin:round;stroke-miterlimit:10;stroke-opacity:1;stroke-dasharray:none"
           d="m 741.1278,2372.1389 16.80158,0"
           inkscape:connector-curvature="0" />
        <path
           id="path5677"
           style="fill:none;stroke:#000000;stroke-width:5;stroke-linecap:butt;stroke-linejoin:round;stroke-miterlimit:10;stroke-opacity:1;stroke-dasharray:none"
           d="m 2407.2845,2372.1389 -16.8015,0"
           inkscape:connector-curvature="0" />
        <g
           transform="scale(1,-1)"
           style="font-size:44.8041954px;stroke-width:5;stroke-miterlimit:10"
           id="text5681">
          <path
             d="m 721.77099,-2358.4475 0,-6.399 -11.59484,0 0,-3.0081 12.19646,-17.3194 2.67993,0 0,17.3194 3.60972,0 0,3.0081 -3.60972,0 0,6.399 z m 0,-9.4071 0,-12.0506 -8.36797,12.0506 z"
             style="font-size:37.33683014px;font-variant:normal;font-weight:normal;writing-mode:lr-tb;fill:#000000;fill-opacity:1;fill-rule:nonzero;stroke:none;font-family:Helvetica;-inkscape-font-specification:Helvetica"
             id="path3142" />
        </g>
        <path
           id="path5685"
           style="fill:none;stroke:#000000;stroke-width:5;stroke-linecap:butt;stroke-linejoin:round;stroke-miterlimit:10;stroke-opacity:1;stroke-dasharray:none"
           d="m 741.1278,2503.4413 16.80158,0"
           inkscape:connector-curvature="0" />
        <path
           id="path5687"
           style="fill:none;stroke:#000000;stroke-width:5;stroke-linecap:butt;stroke-linejoin:round;stroke-miterlimit:10;stroke-opacity:1;stroke-dasharray:none"
           d="m 2407.2845,2503.4413 -16.8015,0"
           inkscape:connector-curvature="0" />
        <g
           transform="scale(1,-1)"
           style="font-size:44.8041954px;stroke-width:5;stroke-miterlimit:10"
           id="text5691">
          <path
             d="m 728.27941,-2509.9316 -3.26333,0.2553 c -0.29171,-1.2883 -0.70494,-2.2242 -1.2397,-2.8076 -0.88725,-0.9358 -1.9811,-1.4038 -3.28155,-1.4038 -1.04525,0 -1.96287,0.2917 -2.75287,0.8751 -1.03309,0.7536 -1.8474,1.8535 -2.44293,3.2998 -0.59555,1.4463 -0.90547,3.5064 -0.92978,6.1803 0.79,-1.2033 1.75624,-2.0966 2.89871,-2.68 1.14246,-0.5834 2.33962,-0.875 3.59148,-0.8751 2.18769,10e-5 4.05028,0.8053 5.58777,2.4156 1.53745,1.6104 2.30618,3.6918 2.3062,6.2441 -2e-5,1.6773 -0.3616,3.236 -1.08474,4.6762 -0.72317,1.4403 -1.71675,2.5432 -2.98074,3.3089 -1.26402,0.7657 -2.69818,1.1486 -4.30249,1.1486 -2.73464,0 -4.96488,-1.0058 -6.69073,-3.0172 -1.72586,-2.0115 -2.58879,-5.3265 -2.58878,-9.945 -10e-6,-5.1654 0.95408,-8.9209 2.86224,-11.2667 1.66508,-2.0418 3.90748,-3.0627 6.7272,-3.0627 2.10261,0 3.82543,0.5894 5.16845,1.7683 1.34299,1.179 2.14818,2.8076 2.41559,4.8859 z m -13.39969,11.5219 c -10e-6,1.1304 0.24003,2.2121 0.72012,3.2451 0.48007,1.0331 1.15157,1.8201 2.01451,2.3609 0.86292,0.5409 1.76838,0.8113 2.7164,0.8113 1.38553,0 2.57662,-0.5591 3.57325,-1.6772 0.99661,-1.1182 1.49492,-2.6374 1.49493,-4.5578 -10e-6,-1.8473 -0.49225,-3.3028 -1.4767,-4.3663 -0.98448,-1.0634 -2.22418,-1.5951 -3.7191,-1.5952 -1.48278,1e-4 -2.74071,0.5318 -3.77379,1.5952 -1.03309,1.0635 -1.54963,2.4582 -1.54962,4.184 z"
             style="font-size:37.33683014px;font-variant:normal;font-weight:normal;writing-mode:lr-tb;fill:#000000;fill-opacity:1;fill-rule:nonzero;stroke:none;font-family:Helvetica;-inkscape-font-specification:Helvetica"
             id="path3139" />
        </g>
        <path
           id="path5695"
           style="fill:none;stroke:#000000;stroke-width:5;stroke-linecap:butt;stroke-linejoin:round;stroke-miterlimit:10;stroke-opacity:1;stroke-dasharray:none"
           d="m 741.1278,2635.0537 16.80158,0"
           inkscape:connector-curvature="0" />
        <path
           id="path5697"
           style="fill:none;stroke:#000000;stroke-width:5;stroke-linecap:butt;stroke-linejoin:round;stroke-miterlimit:10;stroke-opacity:1;stroke-dasharray:none"
           d="m 2407.2845,2635.0537 -16.8015,0"
           inkscape:connector-curvature="0" />
        <g
           transform="scale(1,-1)"
           style="font-size:44.8041954px;stroke-width:5;stroke-miterlimit:10"
           id="text5701">
          <path
             d="m 716.30172,-2635.8558 c -1.36124,-0.4983 -2.37001,-1.2093 -3.02632,-2.1331 -0.65631,-0.9236 -0.98447,-2.0296 -0.98447,-3.318 0,-1.9446 0.69885,-3.5793 2.09655,-4.9041 1.3977,-1.3247 3.25724,-1.9871 5.57865,-1.9872 2.33354,10e-5 4.21132,0.6777 5.63334,2.0328 1.42199,1.3552 2.13299,3.0051 2.13301,4.9497 -2e-5,1.2397 -0.32513,2.3184 -0.97535,3.236 -0.65025,0.9176 -1.63775,1.6256 -2.96252,2.1239 1.64077,0.5347 2.88958,1.3977 3.74645,2.5887 0.85683,1.1911 1.28526,2.6131 1.28528,4.2661 -2e-5,2.2849 -0.80826,4.2052 -2.42471,5.7609 -1.61649,1.5557 -3.74342,2.3336 -6.38081,2.3336 -2.6374,0 -4.76434,-0.7809 -6.3808,-2.3427 -1.61648,-1.5618 -2.42471,-3.5094 -2.42471,-5.843 0,-1.738 0.44058,-3.1934 1.32174,-4.3663 0.88115,-1.1728 2.13605,-1.9719 3.76467,-2.3973 z m -0.65631,-5.5605 c 0,1.2641 0.40715,2.2971 1.22147,3.0993 0.81431,0.8022 1.8717,1.2032 3.17217,1.2032 1.264,0 2.30012,-0.398 3.10837,-1.1941 0.80822,-0.7961 1.21234,-1.7714 1.21235,-2.9261 -10e-6,-1.2032 -0.41628,-2.215 -1.24881,-3.0354 -0.83256,-0.8204 -1.86868,-1.2306 -3.10837,-1.2306 -1.25186,0 -2.29102,0.4011 -3.11748,1.2033 -0.82647,0.8021 -1.2397,1.7623 -1.2397,2.8804 z m -1.05739,12.3423 c 0,0.9359 0.22181,1.8414 0.66543,2.7164 0.44361,0.8751 1.10296,1.5527 1.97805,2.0328 0.87507,0.4801 1.817,0.7201 2.82578,0.7201 1.56785,0 2.86224,-0.5044 3.88318,-1.5132 1.02091,-1.0087 1.53138,-2.291 1.53139,-3.8467 -10e-6,-1.58 -0.52567,-2.8865 -1.57697,-3.9196 -1.05132,-1.0331 -2.36698,-1.5496 -3.94698,-1.5496 -1.54356,0 -2.82275,0.5104 -3.8376,1.5314 -1.01486,1.0209 -1.52228,2.2971 -1.52228,3.8284 z"
             style="font-size:37.33683014px;font-variant:normal;font-weight:normal;writing-mode:lr-tb;fill:#000000;fill-opacity:1;fill-rule:nonzero;stroke:none;font-family:Helvetica;-inkscape-font-specification:Helvetica"
             id="path3136" />
        </g>
        <path
           id="path5705"
           style="fill:none;stroke:#000000;stroke-width:5;stroke-linecap:butt;stroke-linejoin:round;stroke-miterlimit:10;stroke-opacity:1;stroke-dasharray:none"
           d="m 741.1278,2766.3523 16.80158,0"
           inkscape:connector-curvature="0" />
        <path
           id="path5707"
           style="fill:none;stroke:#000000;stroke-width:5;stroke-linecap:butt;stroke-linejoin:round;stroke-miterlimit:10;stroke-opacity:1;stroke-dasharray:none"
           d="m 2407.2845,2766.3523 -16.8015,0"
           inkscape:connector-curvature="0" />
        <g
           transform="scale(1,-1)"
           style="font-size:44.8041954px;stroke-width:5;stroke-miterlimit:10"
           id="text5711">
          <path
             d="m 702.76642,-2752.6648 -3.28156,0 0,-20.9108 c -0.79001,0.7536 -1.82613,1.5071 -3.10836,2.2606 -1.28225,0.7536 -2.43383,1.3187 -3.45475,1.6955 l 0,-3.1722 c 1.83523,-0.8629 3.43955,-1.9081 4.81295,-3.1357 1.37338,-1.2275 2.34569,-2.4186 2.91694,-3.5732 l 2.11478,0 z"
             style="font-size:37.33683014px;font-variant:normal;font-weight:normal;writing-mode:lr-tb;fill:#000000;fill-opacity:1;fill-rule:nonzero;stroke:none;font-family:Helvetica;-inkscape-font-specification:Helvetica"
             id="path3131" />
          <path
             d="m 711.16516,-2765.8457 c 0,-3.16 0.32512,-5.7032 0.97536,-7.6296 0.65023,-1.9264 1.61646,-3.4122 2.8987,-4.4575 1.28224,-1.0452 2.89567,-1.5678 4.8403,-1.5678 1.43415,0 2.69208,0.2886 3.77379,0.8659 1.08169,0.5774 1.975,1.4099 2.67994,2.4977 0.70491,1.0878 1.25791,2.4125 1.65901,3.9743 0.40106,1.5618 0.6016,3.6674 0.60162,6.317 -2e-5,3.1357 -0.3221,5.6668 -0.96624,7.5931 -0.64417,1.9264 -1.60737,3.4153 -2.88959,4.4666 -1.28225,1.0513 -2.90176,1.577 -4.85853,1.577 -2.57664,0 -4.60026,-0.9237 -6.07088,-2.7711 -1.76232,-2.2242 -2.64348,-5.846 -2.64348,-10.8656 z m 3.37272,0 c -10e-6,4.3876 0.51349,7.3075 1.5405,8.7599 1.027,1.4524 2.29405,2.1786 3.80114,2.1786 1.50708,0 2.77412,-0.7292 3.80114,-2.1877 1.02699,-1.4585 1.54049,-4.3754 1.54051,-8.7508 -2e-5,-4.3997 -0.51352,-7.3227 -1.54051,-8.7691 -1.02702,-1.4463 -2.30622,-2.1694 -3.8376,-2.1694 -1.50709,0 -2.71033,0.6381 -3.60971,1.9142 -1.13032,1.6286 -1.69548,4.6367 -1.69547,9.0243 z"
             style="font-size:37.33683014px;font-variant:normal;font-weight:normal;writing-mode:lr-tb;fill:#000000;fill-opacity:1;fill-rule:nonzero;stroke:none;font-family:Helvetica;-inkscape-font-specification:Helvetica"
             id="path3133" />
        </g>
        <path
           id="path5715"
           style="fill:none;stroke:#000000;stroke-width:5;stroke-linecap:butt;stroke-linejoin:round;stroke-miterlimit:10;stroke-opacity:1;stroke-dasharray:none"
           d="m 741.1278,2897.6548 16.80158,0"
           inkscape:connector-curvature="0" />
        <path
           id="path5717"
           style="fill:none;stroke:#000000;stroke-width:5;stroke-linecap:butt;stroke-linejoin:round;stroke-miterlimit:10;stroke-opacity:1;stroke-dasharray:none"
           d="m 2407.2845,2897.6548 -16.8015,0"
           inkscape:connector-curvature="0" />
        <g
           transform="scale(1,-1)"
           style="font-size:44.8041954px;stroke-width:5;stroke-miterlimit:10"
           id="text5721">
          <path
             d="m 702.76642,-2883.9634 -3.28156,0 0,-20.9108 c -0.79001,0.7536 -1.82613,1.5071 -3.10836,2.2606 -1.28225,0.7536 -2.43383,1.3188 -3.45475,1.6955 l 0,-3.1722 c 1.83523,-0.8629 3.43955,-1.9081 4.81295,-3.1357 1.37338,-1.2275 2.34569,-2.4186 2.91694,-3.5732 l 2.11478,0 z"
             style="font-size:37.33683014px;font-variant:normal;font-weight:normal;writing-mode:lr-tb;fill:#000000;fill-opacity:1;fill-rule:nonzero;stroke:none;font-family:Helvetica;-inkscape-font-specification:Helvetica"
             id="path3126" />
          <path
             d="m 728.41157,-2887.1173 0,3.1539 -17.66572,0 c -0.0243,-0.79 0.10331,-1.5496 0.38285,-2.2788 0.4497,-1.2033 1.16981,-2.3883 2.16036,-3.5551 0.99054,-1.1667 2.42166,-2.5158 4.29337,-4.0472 2.90478,-2.3822 4.86763,-4.2691 5.88857,-5.6607 1.02092,-1.3916 1.53138,-2.7073 1.5314,-3.947 -2e-5,-1.3004 -0.4649,-2.3973 -1.39466,-3.2907 -0.92979,-0.8932 -2.14214,-1.3399 -3.63706,-1.3399 -1.58002,0 -2.84403,0.474 -3.79203,1.422 -0.94801,0.948 -1.42809,2.2606 -1.44023,3.9379 l -3.37272,-0.3464 c 0.23093,-2.5159 1.09993,-4.4332 2.60702,-5.7519 1.50708,-1.3186 3.5307,-1.978 6.07088,-1.978 2.56446,0 4.59416,0.711 6.08911,2.133 1.49492,1.422 2.24238,3.1843 2.2424,5.2869 -2e-5,1.0696 -0.21879,2.1209 -0.65631,3.154 -0.43756,1.0331 -1.16376,2.1209 -2.17859,3.2633 -1.01487,1.1425 -2.70122,2.7103 -5.05907,4.7036 -1.96894,1.6529 -3.23295,2.7741 -3.79202,3.3636 -0.55909,0.5894 -1.02094,1.1819 -1.38555,1.7775 z"
             style="font-size:37.33683014px;font-variant:normal;font-weight:normal;writing-mode:lr-tb;fill:#000000;fill-opacity:1;fill-rule:nonzero;stroke:none;font-family:Helvetica;-inkscape-font-specification:Helvetica"
             id="path3128" />
        </g>
        <path
           id="path5725"
           style="fill:none;stroke:#000000;stroke-width:5;stroke-linecap:butt;stroke-linejoin:round;stroke-miterlimit:10;stroke-opacity:1;stroke-dasharray:none"
           d="m 741.1278,3029.2671 16.80158,0"
           inkscape:connector-curvature="0" />
        <path
           id="path5727"
           style="fill:none;stroke:#000000;stroke-width:5;stroke-linecap:butt;stroke-linejoin:round;stroke-miterlimit:10;stroke-opacity:1;stroke-dasharray:none"
           d="m 2407.2845,3029.2671 -16.8015,0"
           inkscape:connector-curvature="0" />
        <g
           transform="scale(1,-1)"
           style="font-size:44.8041954px;stroke-width:5;stroke-miterlimit:10"
           id="text5731">
          <path
             d="m 702.76642,-3015.5757 -3.28156,0 0,-20.9108 c -0.79001,0.7536 -1.82613,1.5071 -3.10836,2.2606 -1.28225,0.7536 -2.43383,1.3187 -3.45475,1.6955 l 0,-3.1722 c 1.83523,-0.8629 3.43955,-1.9081 4.81295,-3.1357 1.37338,-1.2275 2.34569,-2.4186 2.91694,-3.5732 l 2.11478,0 z"
             style="font-size:37.33683014px;font-variant:normal;font-weight:normal;writing-mode:lr-tb;fill:#000000;fill-opacity:1;fill-rule:nonzero;stroke:none;font-family:Helvetica;-inkscape-font-specification:Helvetica"
             id="path3121" />
          <path
             d="m 721.68438,-3015.5757 0,-6.399 -11.59484,0 0,-3.0081 12.19646,-17.3193 2.67994,0 0,17.3193 3.60971,0 0,3.0081 -3.60971,0 0,6.399 z m 0,-9.4071 0,-12.0506 -8.36797,12.0506 z"
             style="font-size:37.33683014px;font-variant:normal;font-weight:normal;writing-mode:lr-tb;fill:#000000;fill-opacity:1;fill-rule:nonzero;stroke:none;font-family:Helvetica;-inkscape-font-specification:Helvetica"
             id="path3123" />
        </g>
        <path
           id="path5735"
           style="fill:none;stroke:#000000;stroke-width:5;stroke-linecap:butt;stroke-linejoin:round;stroke-miterlimit:10;stroke-opacity:1;stroke-dasharray:none"
           d="m 741.1278,3160.5695 16.80158,0"
           inkscape:connector-curvature="0" />
        <path
           id="path5737"
           style="fill:none;stroke:#000000;stroke-width:5;stroke-linecap:butt;stroke-linejoin:round;stroke-miterlimit:10;stroke-opacity:1;stroke-dasharray:none"
           d="m 2407.2845,3160.5695 -16.8015,0"
           inkscape:connector-curvature="0" />
        <g
           transform="scale(1,-1)"
           style="font-size:44.8041954px;stroke-width:5;stroke-miterlimit:10"
           id="text5741">
          <path
             d="m 702.76642,-3146.8782 -3.28156,0 0,-20.9108 c -0.79001,0.7536 -1.82613,1.5071 -3.10836,2.2606 -1.28225,0.7536 -2.43383,1.3188 -3.45475,1.6955 l 0,-3.1722 c 1.83523,-0.8629 3.43955,-1.9081 4.81295,-3.1357 1.37338,-1.2275 2.34569,-2.4186 2.91694,-3.5732 l 2.11478,0 z"
             style="font-size:37.33683014px;font-variant:normal;font-weight:normal;writing-mode:lr-tb;fill:#000000;fill-opacity:1;fill-rule:nonzero;stroke:none;font-family:Helvetica;-inkscape-font-specification:Helvetica"
             id="path3116" />
          <path
             d="m 728.1928,-3167.0598 -3.26333,0.2553 c -0.29171,-1.2883 -0.70494,-2.2242 -1.2397,-2.8076 -0.88724,-0.9358 -1.9811,-1.4037 -3.28155,-1.4038 -1.04525,10e-5 -1.96287,0.2918 -2.75286,0.8751 -1.03309,0.7536 -1.84741,1.8535 -2.44294,3.2998 -0.59555,1.4464 -0.90547,3.5064 -0.92978,6.1803 0.79,-1.2032 1.75624,-2.0965 2.89871,-2.68 1.14246,-0.5833 2.33962,-0.875 3.59148,-0.875 2.1877,0 4.05028,0.8052 5.58777,2.4156 1.53745,1.6104 2.30618,3.6917 2.3062,6.244 -2e-5,1.6773 -0.36159,3.236 -1.08473,4.6762 -0.72318,1.4403 -1.71676,2.5433 -2.98075,3.309 -1.26402,0.7656 -2.69818,1.1485 -4.30249,1.1485 -2.73464,0 -4.96488,-1.0057 -6.69073,-3.0172 -1.72586,-2.0115 -2.58878,-5.3265 -2.58878,-9.945 0,-5.1654 0.95408,-8.9209 2.86224,-11.2666 1.66508,-2.0419 3.90748,-3.0628 6.7272,-3.0628 2.10261,0 3.82543,0.5895 5.16845,1.7684 1.34299,1.1789 2.14819,2.8076 2.41559,4.8858 z m -13.39969,11.522 c -10e-6,1.1303 0.24003,2.212 0.72012,3.2451 0.48007,1.033 1.15157,1.82 2.01451,2.3609 0.86292,0.5408 1.76838,0.8112 2.7164,0.8112 1.38553,0 2.57662,-0.559 3.57325,-1.6772 0.99661,-1.1182 1.49492,-2.6374 1.49493,-4.5577 -10e-6,-1.8474 -0.49225,-3.3028 -1.4767,-4.3663 -0.98448,-1.0635 -2.22418,-1.5952 -3.7191,-1.5952 -1.48278,0 -2.74071,0.5317 -3.77379,1.5952 -1.03309,1.0635 -1.54963,2.4581 -1.54962,4.184 z"
             style="font-size:37.33683014px;font-variant:normal;font-weight:normal;writing-mode:lr-tb;fill:#000000;fill-opacity:1;fill-rule:nonzero;stroke:none;font-family:Helvetica;-inkscape-font-specification:Helvetica"
             id="path3118" />
        </g>
        <path
           id="path5745"
           style="fill:none;stroke:#000000;stroke-width:5;stroke-linecap:butt;stroke-linejoin:round;stroke-miterlimit:10;stroke-opacity:1;stroke-dasharray:none"
           d="m 741.1278,3292.1818 16.80158,0"
           inkscape:connector-curvature="0" />
        <path
           id="path5747"
           style="fill:none;stroke:#000000;stroke-width:5;stroke-linecap:butt;stroke-linejoin:round;stroke-miterlimit:10;stroke-opacity:1;stroke-dasharray:none"
           d="m 2407.2845,3292.1818 -16.8015,0"
           inkscape:connector-curvature="0" />
        <g
           transform="scale(1,-1)"
           style="font-size:44.8041954px;stroke-width:5;stroke-miterlimit:10"
           id="text5751">
          <path
             d="m 702.76642,-3278.4905 -3.28156,0 0,-20.9108 c -0.79001,0.7536 -1.82613,1.5071 -3.10836,2.2606 -1.28225,0.7536 -2.43383,1.3188 -3.45475,1.6955 l 0,-3.1722 c 1.83523,-0.8629 3.43955,-1.9081 4.81295,-3.1357 1.37338,-1.2275 2.34569,-2.4186 2.91694,-3.5732 l 2.11478,0 z"
             style="font-size:37.33683014px;font-variant:normal;font-weight:normal;writing-mode:lr-tb;fill:#000000;fill-opacity:1;fill-rule:nonzero;stroke:none;font-family:Helvetica;-inkscape-font-specification:Helvetica"
             id="path3111" />
          <path
             d="m 716.21512,-3292.984 c -1.36125,-0.4983 -2.37002,-1.2093 -3.02633,-2.133 -0.65631,-0.9237 -0.98447,-2.0297 -0.98447,-3.3181 0,-1.9446 0.69885,-3.5793 2.09655,-4.9041 1.3977,-1.3247 3.25725,-1.9871 5.57865,-1.9871 2.33354,0 4.21132,0.6776 5.63334,2.0327 1.42199,1.3552 2.133,3.0051 2.13301,4.9497 -10e-6,1.2397 -0.32513,2.3184 -0.97535,3.236 -0.65025,0.9176 -1.63775,1.6256 -2.96251,2.1239 1.64076,0.5348 2.88957,1.3977 3.74644,2.5888 0.85683,1.1911 1.28526,2.6131 1.28528,4.266 -2e-5,2.2849 -0.80826,4.2052 -2.42471,5.7609 -1.61649,1.5557 -3.74342,2.3336 -6.38081,2.3336 -2.6374,0 -4.76434,-0.7809 -6.3808,-2.3427 -1.61647,-1.5617 -2.42471,-3.5094 -2.42471,-5.843 0,-1.738 0.44058,-3.1934 1.32174,-4.3663 0.88116,-1.1728 2.13605,-1.9719 3.76468,-2.3973 z m -0.65632,-5.5604 c 0,1.264 0.40715,2.2971 1.22147,3.0992 0.81431,0.8022 1.8717,1.2033 3.17218,1.2032 1.26399,1e-4 2.30011,-0.398 3.10836,-1.1941 0.80822,-0.796 1.21234,-1.7714 1.21235,-2.926 -10e-6,-1.2032 -0.41628,-2.2151 -1.24881,-3.0355 -0.83256,-0.8203 -1.86868,-1.2305 -3.10837,-1.2306 -1.25186,1e-4 -2.29102,0.4011 -3.11748,1.2033 -0.82647,0.8022 -1.2397,1.7623 -1.2397,2.8805 z m -1.05739,12.3423 c 0,0.9358 0.22181,1.8413 0.66543,2.7164 0.44361,0.875 1.10296,1.5526 1.97805,2.0327 0.87507,0.4801 1.817,0.7201 2.82579,0.7201 1.56784,0 2.86223,-0.5044 3.88317,-1.5131 1.02092,-1.0088 1.53138,-2.291 1.5314,-3.8468 -2e-5,-1.58 -0.52568,-2.8865 -1.57697,-3.9196 -1.05133,-1.0331 -2.36699,-1.5496 -3.94699,-1.5496 -1.54356,0 -2.82275,0.5105 -3.8376,1.5314 -1.01486,1.0209 -1.52228,2.2971 -1.52228,3.8285 z"
             style="font-size:37.33683014px;font-variant:normal;font-weight:normal;writing-mode:lr-tb;fill:#000000;fill-opacity:1;fill-rule:nonzero;stroke:none;font-family:Helvetica;-inkscape-font-specification:Helvetica"
             id="path3113" />
        </g>
        <path
           id="path5755"
           style="fill:none;stroke:#000000;stroke-width:5;stroke-linecap:butt;stroke-linejoin:round;stroke-miterlimit:10;stroke-opacity:1;stroke-dasharray:none"
           d="m 741.1278,3423.4805 16.80158,0"
           inkscape:connector-curvature="0" />
        <path
           id="path5757"
           style="fill:none;stroke:#000000;stroke-width:5;stroke-linecap:butt;stroke-linejoin:round;stroke-miterlimit:10;stroke-opacity:1;stroke-dasharray:none"
           d="m 2407.2845,3423.4805 -16.8015,0"
           inkscape:connector-curvature="0" />
        <g
           transform="scale(1,-1)"
           style="font-size:44.8041954px;stroke-width:5;stroke-miterlimit:10"
           id="text5761">
          <path
             d="m 707.65229,-3412.9469 0,3.1539 -17.66571,0 c -0.0243,-0.79 0.1033,-1.5496 0.38284,-2.2788 0.4497,-1.2033 1.16982,-2.3883 2.16036,-3.555 0.99054,-1.1668 2.42167,-2.5159 4.29337,-4.0473 2.90478,-2.3822 4.86763,-4.2691 5.88858,-5.6607 1.02091,-1.3916 1.53137,-2.7073 1.53139,-3.947 -2e-5,-1.3004 -0.4649,-2.3973 -1.39466,-3.2906 -0.92979,-0.8933 -2.14214,-1.34 -3.63706,-1.34 -1.58002,0 -2.84403,0.474 -3.79202,1.422 -0.94801,0.948 -1.42809,2.2606 -1.44024,3.9379 l -3.37271,-0.3464 c 0.23092,-2.5159 1.09992,-4.4331 2.60701,-5.7519 1.50708,-1.3186 3.53071,-1.978 6.07088,-1.978 2.56447,0 4.59417,0.711 6.08911,2.133 1.49492,1.422 2.24238,3.1843 2.2424,5.287 -2e-5,1.0695 -0.21879,2.1208 -0.65631,3.1539 -0.43756,1.0331 -1.16375,2.1209 -2.17859,3.2633 -1.01487,1.1425 -2.70122,2.7104 -5.05907,4.7036 -1.96894,1.6529 -3.23295,2.7741 -3.79202,3.3636 -0.55909,0.5894 -1.02093,1.182 -1.38555,1.7775 z"
             style="font-size:37.33683014px;font-variant:normal;font-weight:normal;writing-mode:lr-tb;fill:#000000;fill-opacity:1;fill-rule:nonzero;stroke:none;font-family:Helvetica;-inkscape-font-specification:Helvetica"
             id="path3106" />
          <path
             d="m 711.16516,-3422.9739 c 0,-3.16 0.32512,-5.7032 0.97536,-7.6296 0.65023,-1.9264 1.61646,-3.4122 2.8987,-4.4575 1.28224,-1.0452 2.89567,-1.5678 4.8403,-1.5678 1.43415,0 2.69208,0.2887 3.77379,0.866 1.08169,0.5773 1.975,1.4098 2.67994,2.4976 0.70491,1.0878 1.25791,2.4126 1.65901,3.9743 0.40106,1.5618 0.6016,3.6675 0.60162,6.317 -2e-5,3.1357 -0.3221,5.6668 -0.96624,7.5932 -0.64417,1.9264 -1.60737,3.4152 -2.88959,4.4665 -1.28225,1.0513 -2.90176,1.577 -4.85853,1.577 -2.57664,0 -4.60026,-0.9237 -6.07088,-2.7711 -1.76232,-2.2242 -2.64348,-5.846 -2.64348,-10.8656 z m 3.37272,0 c -10e-6,4.3876 0.51349,7.3076 1.5405,8.7599 1.027,1.4524 2.29405,2.1786 3.80114,2.1786 1.50708,0 2.77412,-0.7292 3.80114,-2.1877 1.02699,-1.4584 1.54049,-4.3754 1.54051,-8.7508 -2e-5,-4.3997 -0.51352,-7.3227 -1.54051,-8.769 -1.02702,-1.4463 -2.30622,-2.1695 -3.8376,-2.1695 -1.50709,0 -2.71033,0.6381 -3.60971,1.9142 -1.13032,1.6287 -1.69548,4.6368 -1.69547,9.0243 z"
             style="font-size:37.33683014px;font-variant:normal;font-weight:normal;writing-mode:lr-tb;fill:#000000;fill-opacity:1;fill-rule:nonzero;stroke:none;font-family:Helvetica;-inkscape-font-specification:Helvetica"
             id="path3108" />
        </g>
        <path
           id="path5791"
           style="fill:none;stroke:#00007f;stroke-width:5;stroke-linecap:butt;stroke-linejoin:round;stroke-miterlimit:10;stroke-opacity:1;stroke-dasharray:none"
           d="m 907.89723,2443.3888 0,980.0917"
           inkscape:connector-curvature="0"
           sodipodi:nodetypes="cc" />
        <path
           id="path5793"
           style="fill:none;stroke:#00007f;stroke-width:5;stroke-linecap:butt;stroke-linejoin:round;stroke-miterlimit:10;stroke-opacity:1;stroke-dasharray:none"
           d="m 2407.2845,2240.5266 -1468.58438,0 -28.00263,0.9334 -1.86684,1.5569 -0.93342,22.0885 0,178.2834"
           inkscape:connector-curvature="0"
           sodipodi:nodetypes="cccccc" />
        <path
           sodipodi:nodetypes="cc"
           inkscape:connector-curvature="0"
           d="m 1240.9382,2661.2772 0,762.7591"
           style="fill:none;stroke:#0062ff;stroke-width:5;stroke-linecap:butt;stroke-linejoin:round;stroke-miterlimit:10;stroke-opacity:1;stroke-dasharray:none"
           id="path7008" />
        <path
           sodipodi:nodetypes="cccccc"
           inkscape:connector-curvature="0"
           d="m 2407.8403,2503.3994 -1142.9296,0 -21.7932,0.7264 -1.4528,1.2115 -0.7265,17.1905 0,138.7494"
           style="fill:none;stroke:#0062ff;stroke-width:5;stroke-linecap:butt;stroke-linejoin:round;stroke-miterlimit:10;stroke-opacity:1;stroke-dasharray:none"
           id="path7010" />
        <path
           id="path7020"
           style="fill:none;stroke:#d4ff2a;stroke-width:5;stroke-linecap:butt;stroke-linejoin:round;stroke-miterlimit:10;stroke-opacity:1;stroke-dasharray:none"
           d="m 1904.8596,3095.6395 0,329.5006"
           inkscape:connector-curvature="0"
           sodipodi:nodetypes="cc" />
        <path
           id="path7022"
           style="fill:none;stroke:#d4ff2a;stroke-width:5;stroke-linecap:butt;stroke-linejoin:round;stroke-miterlimit:10;stroke-opacity:1;stroke-dasharray:none"
           d="m 2408.9441,3027.4386 -493.7287,0 -9.4143,0.3138 -0.6276,0.5234 -0.3139,7.426 0,59.9377"
           inkscape:connector-curvature="0"
           sodipodi:nodetypes="cccccc" />
        <path
           sodipodi:nodetypes="cc"
           inkscape:connector-curvature="0"
           d="m 2238.5935,3313.9796 0,111.7124"
           style="fill:none;stroke:#ff7000;stroke-width:5;stroke-linecap:butt;stroke-linejoin:round;stroke-miterlimit:10;stroke-opacity:1;stroke-dasharray:none"
           id="path7024" />
        <path
           sodipodi:nodetypes="cccccc"
           inkscape:connector-curvature="0"
           d="m 2409.496,3290.8571 -167.3915,0 -3.1918,0.1064 -0.2128,0.1774 -0.1064,2.5177 0,20.321"
           style="fill:none;stroke:#ff7000;stroke-width:5;stroke-linecap:butt;stroke-linejoin:round;stroke-miterlimit:10;stroke-opacity:1;stroke-dasharray:none"
           id="path7026" />
        <path
           id="path7028"
           style="fill:none;stroke:#62ff9b;stroke-width:5;stroke-linecap:butt;stroke-linejoin:round;stroke-miterlimit:10;stroke-opacity:1;stroke-dasharray:none"
           d="m 1574.5125,2879.5683 0,545.1794"
           inkscape:connector-curvature="0"
           sodipodi:nodetypes="cc" />
        <path
           id="path7030"
           style="fill:none;stroke:#62ff9b;stroke-width:5;stroke-linecap:butt;stroke-linejoin:round;stroke-miterlimit:10;stroke-opacity:1;stroke-dasharray:none"
           d="m 2408.5517,2766.7257 -816.9049,0 -15.5766,0.5192 -1.0384,0.8659 -0.5193,12.2869 0,99.1706"
           inkscape:connector-curvature="0"
           sodipodi:nodetypes="cccccc" />
        <text
           xml:space="preserve"
           style="font-size:80.00000763px;font-style:normal;font-weight:normal;line-height:125%;letter-spacing:0px;word-spacing:0px;fill:#000000;fill-opacity:1;stroke:none;font-family:Sans"
           x="1558.1461"
           y="-1962.2397"
           id="text3225"
           sodipodi:linespacing="125%"
           transform="scale(1,-1)"><tspan
             sodipodi:role="line"
             id="tspan3227"
             x="1558.1461"
             y="-1962.2397">$x_1$</tspan></text>
        <text
           sodipodi:linespacing="125%"
           id="text3229"
           y="-2760.2285"
           x="537.8324"
           style="font-size:80.00000763px;font-style:normal;font-weight:normal;line-height:125%;letter-spacing:0px;word-spacing:0px;fill:#000000;fill-opacity:1;stroke:none;font-family:Sans"
           xml:space="preserve"
           transform="scale(1,-1)"><tspan
             y="-2760.2285"
             x="537.8324"
             id="tspan3231"
             sodipodi:role="line">$x_2$</tspan></text>
      </g>
    </g>
  </g>
</svg>
